<?xml version="1.0" encoding="UTF-8" standalone="no"?><svg xmlns="http://www.w3.org/2000/svg" xmlns:xlink="http://www.w3.org/1999/xlink" contentScriptType="application/ecmascript" contentStyleType="text/css" height="270px" preserveAspectRatio="none" style="width:341px;height:270px;" version="1.1" viewBox="0 0 341 270" width="341px" zoomAndPan="magnify"><defs><filter height="300%" id="fb9owwrh719xx" width="300%" x="-1" y="-1"><feGaussianBlur result="blurOut" stdDeviation="2.0"/><feColorMatrix in="blurOut" result="blurOut2" type="matrix" values="0 0 0 0 0 0 0 0 0 0 0 0 0 0 0 0 0 0 .4 0"/><feOffset dx="4.0" dy="4.0" in="blurOut2" result="blurOut3"/><feBlend in="SourceGraphic" in2="blurOut3" mode="normal"/></filter></defs><g><!--MD5=[66092f187a140d509edf35c12b1eec33]
cluster Glückwunschkarte--><polygon fill="#FFFFFF" filter="url(#fb9owwrh719xx)" points="16,6,171,6,178,28.2969,324,28.2969,324,263,16,263,16,6" style="stroke:#000000;stroke-width:1.5;"/><line style="stroke:#000000;stroke-width:1.5;" x1="16" x2="178" y1="28.2969" y2="28.2969"/><text fill="#000000" font-family="sans-serif" font-size="14" font-weight="bold" lengthAdjust="spacingAndGlyphs" textLength="149" x="20" y="20.9951">Glückwunschkarte</text><ellipse cx="169.9484" cy="214.3449" fill="#FEFECE" filter="url(#fb9owwrh719xx)" rx="137.4484" ry="32.3449" style="stroke:#A80036;stroke-width:1.5;"/><text fill="#000000" font-family="sans-serif" font-size="14" lengthAdjust="spacingAndGlyphs" textLength="86" x="126.9484" y="199.3382">Lieber Tom,</text><text fill="#000000" font-family="sans-serif" font-size="14" lengthAdjust="spacingAndGlyphs" textLength="224" x="57.9484" y="215.635">wir wünschen dir viel Erfolg und</text><text fill="#000000" font-family="sans-serif" font-size="14" lengthAdjust="spacingAndGlyphs" textLength="187" x="76.4484" y="231.9319">alles Gute für die Zukunft!</text><!--MD5=[c1b96b8b8683df5ba748b0cb12cbbe3c]
entity Daniel--><ellipse cx="282" cy="50.5" fill="#FEFECE" filter="url(#fb9owwrh719xx)" rx="8" ry="8" style="stroke:#A80036;stroke-width:1.5;"/><path d="M282,58.5 L282,85.5 M269,66.5 L295,66.5 M282,85.5 L269,100.5 M282,85.5 L295,100.5 " fill="none" filter="url(#fb9owwrh719xx)" style="stroke:#A80036;stroke-width:1.5;"/><text fill="#000000" font-family="sans-serif" font-size="14" lengthAdjust="spacingAndGlyphs" textLength="45" x="259.5" y="118.9951">Daniel</text><!--MD5=[a9423008d16f12aa17a26e16f8cb43d5]
entity Rene--><ellipse cx="206" cy="50.5" fill="#FEFECE" filter="url(#fb9owwrh719xx)" rx="8" ry="8" style="stroke:#A80036;stroke-width:1.5;"/><path d="M206,58.5 L206,85.5 M193,66.5 L219,66.5 M206,85.5 L193,100.5 M206,85.5 L219,100.5 " fill="none" filter="url(#fb9owwrh719xx)" style="stroke:#A80036;stroke-width:1.5;"/><text fill="#000000" font-family="sans-serif" font-size="14" lengthAdjust="spacingAndGlyphs" textLength="37" x="187.5" y="118.9951">Rene</text><!--MD5=[fa3845fac8be698dd000fa68d5a2e3be]
entity Frank--><ellipse cx="132" cy="50.5" fill="#FEFECE" filter="url(#fb9owwrh719xx)" rx="8" ry="8" style="stroke:#A80036;stroke-width:1.5;"/><path d="M132,58.5 L132,85.5 M119,66.5 L145,66.5 M132,85.5 L119,100.5 M132,85.5 L145,100.5 " fill="none" filter="url(#fb9owwrh719xx)" style="stroke:#A80036;stroke-width:1.5;"/><text fill="#000000" font-family="sans-serif" font-size="14" lengthAdjust="spacingAndGlyphs" textLength="40" x="112" y="118.9951">Frank</text><!--MD5=[0630ea7ba86524916c58551553813136]
entity Janina--><ellipse cx="56" cy="50.5" fill="#FEFECE" filter="url(#fb9owwrh719xx)" rx="8" ry="8" style="stroke:#A80036;stroke-width:1.5;"/><path d="M56,58.5 L56,85.5 M43,66.5 L69,66.5 M56,85.5 L43,100.5 M56,85.5 L69,100.5 " fill="none" filter="url(#fb9owwrh719xx)" style="stroke:#A80036;stroke-width:1.5;"/><text fill="#000000" font-family="sans-serif" font-size="14" lengthAdjust="spacingAndGlyphs" textLength="42" x="35" y="118.9951">Janina</text><!--MD5=[134f007453776ecca3a6acf8d78233db]
link Daniel to goodbye--><path d="M259.335,109.01 C241.182,130.242 215.681,160.069 196.569,182.4237 " fill="none" id="Daniel-goodbye" style="stroke:#A80036;stroke-width:1.0;"/><!--MD5=[db63f63d1dde73e9ed38631a79176a49]
link Rene to goodbye--><path d="M195.101,122.16 C189.845,141.288 183.626,163.917 178.693,181.8656 " fill="none" id="Rene-goodbye" style="stroke:#A80036;stroke-width:1.0;"/><!--MD5=[644a0aa15c78204cc8702eb030db7665]
link Frank to goodbye--><path d="M143.504,122.16 C149.053,141.288 155.617,163.917 160.824,181.8656 " fill="none" id="Frank-goodbye" style="stroke:#A80036;stroke-width:1.0;"/><!--MD5=[a7c4c016ed3720d98aa871a82b235603]
link Janina to goodbye--><path d="M77.1754,106.833 C95.7198,128.143 122.772,159.229 142.893,182.351 " fill="none" id="Janina-goodbye" style="stroke:#A80036;stroke-width:1.0;"/><!--MD5=[f01f7b1ac1249968525439d27c7954e8]
@startuml
folder "Glückwunschkarte" {
    usecase goodbye [
        Lieber Tom,
        wir wünschen dir viel Erfolg und
        alles Gute für die Zukunft!
    ]

    :Daniel: - - goodbye
    :Rene: - - goodbye
    :Frank: - - goodbye
    :Janina: - - goodbye

}
@enduml

PlantUML version 1.2020.22(Sun Dec 06 09:36:27 UTC 2020)
(GPL source distribution)
Java Runtime: Java(TM) SE Runtime Environment
JVM: Java HotSpot(TM) 64-Bit Server VM
Default Encoding: UTF-8
Language: en
Country: US
--></g></svg>