<?xml version="1.0" encoding="UTF-8" standalone="no"?><svg xmlns="http://www.w3.org/2000/svg" xmlns:xlink="http://www.w3.org/1999/xlink" contentScriptType="application/ecmascript" contentStyleType="text/css" height="297px" preserveAspectRatio="none" style="width:1326px;height:297px;" version="1.1" viewBox="0 0 1326 297" width="1326px" zoomAndPan="magnify"><defs><filter height="300%" id="f12trfzgug1nj1" width="300%" x="-1" y="-1"><feGaussianBlur result="blurOut" stdDeviation="2.0"/><feColorMatrix in="blurOut" result="blurOut2" type="matrix" values="0 0 0 0 0 0 0 0 0 0 0 0 0 0 0 0 0 0 .4 0"/><feOffset dx="4.0" dy="4.0" in="blurOut2" result="blurOut3"/><feBlend in="SourceGraphic" in2="blurOut3" mode="normal"/></filter></defs><g><!--MD5=[66092f187a140d509edf35c12b1eec33]
cluster Glückwunschkarte--><polygon fill="#FFFFFF" filter="url(#f12trfzgug1nj1)" points="16,6,171,6,178,28.2969,1309,28.2969,1309,290,16,290,16,6" style="stroke:#000000;stroke-width:1.5;"/><line style="stroke:#000000;stroke-width:1.5;" x1="16" x2="178" y1="28.2969" y2="28.2969"/><text fill="#000000" font-family="sans-serif" font-size="14" font-weight="bold" lengthAdjust="spacingAndGlyphs" textLength="149" x="20" y="20.9951">Glückwunschkarte</text><ellipse cx="684.8772" cy="236.5709" fill="#FEFECE" filter="url(#f12trfzgug1nj1)" rx="169.8772" ry="37.5709" style="stroke:#A80036;stroke-width:1.5;"/><text fill="#000000" font-family="sans-serif" font-size="14" lengthAdjust="spacingAndGlyphs" textLength="86" x="641.8772" y="223.1207">Lieber Tom,</text><text fill="#000000" font-family="sans-serif" font-size="14" lengthAdjust="spacingAndGlyphs" textLength="224" x="572.8772" y="239.4176">wir wünschen dir viel Erfolg und</text><text fill="#000000" font-family="sans-serif" font-size="14" lengthAdjust="spacingAndGlyphs" textLength="187" x="591.3772" y="255.7144">alles Gute für die Zukunft!</text><!--MD5=[c1b96b8b8683df5ba748b0cb12cbbe3c]
entity Daniel--><ellipse cx="1270" cy="50.5" fill="#FEFECE" filter="url(#f12trfzgug1nj1)" rx="8" ry="8" style="stroke:#A80036;stroke-width:1.5;"/><path d="M1270,58.5 L1270,85.5 M1257,66.5 L1283,66.5 M1270,85.5 L1257,100.5 M1270,85.5 L1283,100.5 " fill="none" filter="url(#f12trfzgug1nj1)" style="stroke:#A80036;stroke-width:1.5;"/><text fill="#000000" font-family="sans-serif" font-size="14" lengthAdjust="spacingAndGlyphs" textLength="45" x="1247.5" y="118.9951">Daniel</text><!--MD5=[a9423008d16f12aa17a26e16f8cb43d5]
entity Rene--><ellipse cx="1194" cy="50.5" fill="#FEFECE" filter="url(#f12trfzgug1nj1)" rx="8" ry="8" style="stroke:#A80036;stroke-width:1.5;"/><path d="M1194,58.5 L1194,85.5 M1181,66.5 L1207,66.5 M1194,85.5 L1181,100.5 M1194,85.5 L1207,100.5 " fill="none" filter="url(#f12trfzgug1nj1)" style="stroke:#A80036;stroke-width:1.5;"/><text fill="#000000" font-family="sans-serif" font-size="14" lengthAdjust="spacingAndGlyphs" textLength="37" x="1175.5" y="118.9951">Rene</text><!--MD5=[fa3845fac8be698dd000fa68d5a2e3be]
entity Frank--><ellipse cx="1120" cy="50.5" fill="#FEFECE" filter="url(#f12trfzgug1nj1)" rx="8" ry="8" style="stroke:#A80036;stroke-width:1.5;"/><path d="M1120,58.5 L1120,85.5 M1107,66.5 L1133,66.5 M1120,85.5 L1107,100.5 M1120,85.5 L1133,100.5 " fill="none" filter="url(#f12trfzgug1nj1)" style="stroke:#A80036;stroke-width:1.5;"/><text fill="#000000" font-family="sans-serif" font-size="14" lengthAdjust="spacingAndGlyphs" textLength="40" x="1100" y="118.9951">Frank</text><!--MD5=[0630ea7ba86524916c58551553813136]
entity Janina--><ellipse cx="1044" cy="50.5" fill="#FEFECE" filter="url(#f12trfzgug1nj1)" rx="8" ry="8" style="stroke:#A80036;stroke-width:1.5;"/><path d="M1044,58.5 L1044,85.5 M1031,66.5 L1057,66.5 M1044,85.5 L1031,100.5 M1044,85.5 L1057,100.5 " fill="none" filter="url(#f12trfzgug1nj1)" style="stroke:#A80036;stroke-width:1.5;"/><text fill="#000000" font-family="sans-serif" font-size="14" lengthAdjust="spacingAndGlyphs" textLength="42" x="1023" y="118.9951">Janina</text><!--MD5=[256e55fea0fa3198e7872be6d62206e7]
entity Hartwig--><ellipse cx="960" cy="50.5" fill="#FEFECE" filter="url(#f12trfzgug1nj1)" rx="8" ry="8" style="stroke:#A80036;stroke-width:1.5;"/><path d="M960,58.5 L960,85.5 M947,66.5 L973,66.5 M960,85.5 L947,100.5 M960,85.5 L973,100.5 " fill="none" filter="url(#f12trfzgug1nj1)" style="stroke:#A80036;stroke-width:1.5;"/><text fill="#000000" font-family="sans-serif" font-size="14" lengthAdjust="spacingAndGlyphs" textLength="55" x="932.5" y="118.9951">Hartwig</text><!--MD5=[9b95b9c18cb1e472571f5f163adcbf08]
entity Claus-Peter--><ellipse cx="856" cy="50.5" fill="#FEFECE" filter="url(#f12trfzgug1nj1)" rx="8" ry="8" style="stroke:#A80036;stroke-width:1.5;"/><path d="M856,58.5 L856,85.5 M843,66.5 L869,66.5 M856,85.5 L843,100.5 M856,85.5 L869,100.5 " fill="none" filter="url(#f12trfzgug1nj1)" style="stroke:#A80036;stroke-width:1.5;"/><text fill="#000000" font-family="sans-serif" font-size="14" lengthAdjust="spacingAndGlyphs" textLength="83" x="814.5" y="118.9951">Claus-Peter</text><!--MD5=[b1b6f11ea69a5e1a18d70aafc16bcf68]
entity Felix--><ellipse cx="763" cy="50.5" fill="#FEFECE" filter="url(#f12trfzgug1nj1)" rx="8" ry="8" style="stroke:#A80036;stroke-width:1.5;"/><path d="M763,58.5 L763,85.5 M750,66.5 L776,66.5 M763,85.5 L750,100.5 M763,85.5 L776,100.5 " fill="none" filter="url(#f12trfzgug1nj1)" style="stroke:#A80036;stroke-width:1.5;"/><text fill="#000000" font-family="sans-serif" font-size="14" lengthAdjust="spacingAndGlyphs" textLength="33" x="746.5" y="118.9951">Felix</text><!--MD5=[0d988fe91444ec70c41456c736a04fce]
entity Stefan--><ellipse cx="687" cy="50.5" fill="#FEFECE" filter="url(#f12trfzgug1nj1)" rx="8" ry="8" style="stroke:#A80036;stroke-width:1.5;"/><path d="M687,58.5 L687,85.5 M674,66.5 L700,66.5 M687,85.5 L674,100.5 M687,85.5 L700,100.5 " fill="none" filter="url(#f12trfzgug1nj1)" style="stroke:#A80036;stroke-width:1.5;"/><text fill="#000000" font-family="sans-serif" font-size="14" lengthAdjust="spacingAndGlyphs" textLength="48" x="663" y="118.9951">Stefan</text><!--MD5=[dd3cab79017c4025ff97f2ffe66ce617]
entity Klaus--><ellipse cx="609" cy="50.5" fill="#FEFECE" filter="url(#f12trfzgug1nj1)" rx="8" ry="8" style="stroke:#A80036;stroke-width:1.5;"/><path d="M609,58.5 L609,85.5 M596,66.5 L622,66.5 M609,85.5 L596,100.5 M609,85.5 L622,100.5 " fill="none" filter="url(#f12trfzgug1nj1)" style="stroke:#A80036;stroke-width:1.5;"/><text fill="#000000" font-family="sans-serif" font-size="14" lengthAdjust="spacingAndGlyphs" textLength="37" x="590.5" y="118.9951">Klaus</text><!--MD5=[52f72cad88ef2c18c4ef0e5aee04cdc6]
entity Detlef--><ellipse cx="532" cy="50.5" fill="#FEFECE" filter="url(#f12trfzgug1nj1)" rx="8" ry="8" style="stroke:#A80036;stroke-width:1.5;"/><path d="M532,58.5 L532,85.5 M519,66.5 L545,66.5 M532,85.5 L519,100.5 M532,85.5 L545,100.5 " fill="none" filter="url(#f12trfzgug1nj1)" style="stroke:#A80036;stroke-width:1.5;"/><text fill="#000000" font-family="sans-serif" font-size="14" lengthAdjust="spacingAndGlyphs" textLength="46" x="509" y="118.9951">Detlef</text><!--MD5=[adf99b581cb8d84a603ed1e57d0cd319]
entity Shyam--><ellipse cx="450" cy="50.5" fill="#FEFECE" filter="url(#f12trfzgug1nj1)" rx="8" ry="8" style="stroke:#A80036;stroke-width:1.5;"/><path d="M450,58.5 L450,85.5 M437,66.5 L463,66.5 M450,85.5 L437,100.5 M450,85.5 L463,100.5 " fill="none" filter="url(#f12trfzgug1nj1)" style="stroke:#A80036;stroke-width:1.5;"/><text fill="#000000" font-family="sans-serif" font-size="14" lengthAdjust="spacingAndGlyphs" textLength="48" x="426" y="118.9951">Shyam</text><!--MD5=[f9dd6b39be9a99c92cca373d23c3a60a]
entity MicNet--><ellipse cx="366" cy="50.5" fill="#FEFECE" filter="url(#f12trfzgug1nj1)" rx="8" ry="8" style="stroke:#A80036;stroke-width:1.5;"/><path d="M366,58.5 L366,85.5 M353,66.5 L379,66.5 M366,85.5 L353,100.5 M366,85.5 L379,100.5 " fill="none" filter="url(#f12trfzgug1nj1)" style="stroke:#A80036;stroke-width:1.5;"/><text fill="#000000" font-family="sans-serif" font-size="14" lengthAdjust="spacingAndGlyphs" textLength="50" x="341" y="118.9951">MicNet</text><!--MD5=[41f2db2ca7aecd6a21c8c9517294992e]
entity Gordon--><ellipse cx="279" cy="50.5" fill="#FEFECE" filter="url(#f12trfzgug1nj1)" rx="8" ry="8" style="stroke:#A80036;stroke-width:1.5;"/><path d="M279,58.5 L279,85.5 M266,66.5 L292,66.5 M279,85.5 L266,100.5 M279,85.5 L292,100.5 " fill="none" filter="url(#f12trfzgug1nj1)" style="stroke:#A80036;stroke-width:1.5;"/><text fill="#000000" font-family="sans-serif" font-size="14" lengthAdjust="spacingAndGlyphs" textLength="53" x="252.5" y="118.9951">Gordon</text><!--MD5=[fcbda0a99a206a8c315729d3b009c889]
entity Arnold--><ellipse cx="194" cy="50.5" fill="#FEFECE" filter="url(#f12trfzgug1nj1)" rx="8" ry="8" style="stroke:#A80036;stroke-width:1.5;"/><path d="M194,58.5 L194,85.5 M181,66.5 L207,66.5 M194,85.5 L181,100.5 M194,85.5 L207,100.5 " fill="none" filter="url(#f12trfzgug1nj1)" style="stroke:#A80036;stroke-width:1.5;"/><text fill="#000000" font-family="sans-serif" font-size="14" lengthAdjust="spacingAndGlyphs" textLength="47" x="170.5" y="118.9951">Arnold</text><!--MD5=[feb5d7b50972393c5935af67c12f6c23]
entity Jens--><ellipse cx="121" cy="50.5" fill="#FEFECE" filter="url(#f12trfzgug1nj1)" rx="8" ry="8" style="stroke:#A80036;stroke-width:1.5;"/><path d="M121,58.5 L121,85.5 M108,66.5 L134,66.5 M121,85.5 L108,100.5 M121,85.5 L134,100.5 " fill="none" filter="url(#f12trfzgug1nj1)" style="stroke:#A80036;stroke-width:1.5;"/><text fill="#000000" font-family="sans-serif" font-size="14" lengthAdjust="spacingAndGlyphs" textLength="29" x="106.5" y="118.9951">Jens</text><!--MD5=[acf15012f68eca4cd8d497cab17f1cc1]
entity Mario--><ellipse cx="52" cy="50.5" fill="#FEFECE" filter="url(#f12trfzgug1nj1)" rx="8" ry="8" style="stroke:#A80036;stroke-width:1.5;"/><path d="M52,58.5 L52,85.5 M39,66.5 L65,66.5 M52,85.5 L39,100.5 M52,85.5 L65,100.5 " fill="none" filter="url(#f12trfzgug1nj1)" style="stroke:#A80036;stroke-width:1.5;"/><text fill="#000000" font-family="sans-serif" font-size="14" lengthAdjust="spacingAndGlyphs" textLength="39" x="32.5" y="118.9951">Mario</text><!--MD5=[134f007453776ecca3a6acf8d78233db]
link Daniel to goodbye--><path d="M1247.21,118.035 C1233.5,136.346 1214.38,157.244 1192,169 C1134.69,199.109 978.107,216.4958 853.977,225.8833 " fill="none" id="Daniel-to-goodbye" style="stroke:#A80036;stroke-width:1.0;"/><polygon fill="#A80036" points="848.834,226.269,858.1082,229.5841,853.82,225.8947,857.5093,221.6065,848.834,226.269" style="stroke:#A80036;stroke-width:1.0;"/><text fill="#000000" font-family="sans-serif" font-size="13" lengthAdjust="spacingAndGlyphs" textLength="30" x="1217" y="165.0669">says</text><!--MD5=[db63f63d1dde73e9ed38631a79176a49]
link Rene to goodbye--><path d="M1175.43,120.462 C1164.85,138.049 1149.91,157.545 1131,169 C1084.66,197.075 958.024,214.2319 851.484,224.0693 " fill="none" id="Rene-to-goodbye" style="stroke:#A80036;stroke-width:1.0;"/><polygon fill="#A80036" points="846.426,224.5323,855.7531,227.6954,851.4052,224.0766,855.024,219.7287,846.426,224.5323" style="stroke:#A80036;stroke-width:1.0;"/><text fill="#000000" font-family="sans-serif" font-size="13" lengthAdjust="spacingAndGlyphs" textLength="30" x="1153" y="165.0669">says</text><!--MD5=[644a0aa15c78204cc8702eb030db7665]
link Frank to goodbye--><path d="M1099.88,105.993 C1094.42,111.625 1088.27,117.349 1082,122 C1045.13,149.366 1033.23,153.537 990,169 C937.475,187.786 877.882,202.216 825.394,212.7559 " fill="none" id="Frank-to-goodbye" style="stroke:#A80036;stroke-width:1.0;"/><polygon fill="#A80036" points="820.338,213.7637,829.9462,215.9277,825.2416,212.7866,828.3827,208.082,820.338,213.7637" style="stroke:#A80036;stroke-width:1.0;"/><text fill="#000000" font-family="sans-serif" font-size="13" lengthAdjust="spacingAndGlyphs" textLength="30" x="1035" y="165.0669">says</text><!--MD5=[644a0aa15c78204cc8702eb030db7665]
link Frank to goodbye--><path d="M1107.75,122.336 C1100.56,139.249 1089.72,157.644 1074,169 C1037.82,195.139 937.713,211.8963 848.116,222.0509 " fill="none" id="Frank-to-goodbye-1" style="stroke:#A80036;stroke-width:1.0;"/><polygon fill="#A80036" points="843.046,222.6198,852.4365,225.5894,848.0147,222.0612,851.5428,217.6394,843.046,222.6198" style="stroke:#A80036;stroke-width:1.0;"/><text fill="#000000" font-family="sans-serif" font-size="13" lengthAdjust="spacingAndGlyphs" textLength="30" x="1092" y="165.0669">says</text><!--MD5=[a7c4c016ed3720d98aa871a82b235603]
link Janina to goodbye--><path d="M1022.59,106.989 C1017.19,112.345 1011.16,117.694 1005,122 C946.372,162.97 871.43,190.601 808.811,208.3331 " fill="none" id="Janina-to-goodbye" style="stroke:#A80036;stroke-width:1.0;"/><polygon fill="#A80036" points="803.943,209.6989,813.6891,211.1176,808.7569,208.3475,811.527,203.4153,803.943,209.6989" style="stroke:#A80036;stroke-width:1.0;"/><text fill="#000000" font-family="sans-serif" font-size="13" lengthAdjust="spacingAndGlyphs" textLength="30" x="951" y="165.0669">says</text><!--MD5=[73e5cbdd5fe8c098f32d0e922db6c3b3]
link Hartwig to goodbye--><path d="M932.272,108.654 C926.739,113.344 920.831,118.004 915,122 C869.281,153.334 813.645,181.031 768.545,201.219 " fill="none" id="Hartwig-to-goodbye" style="stroke:#A80036;stroke-width:1.0;"/><polygon fill="#A80036" points="763.937,203.272,773.7859,203.264,768.5044,201.2376,770.5308,195.9561,763.937,203.272" style="stroke:#A80036;stroke-width:1.0;"/><text fill="#000000" font-family="sans-serif" font-size="13" lengthAdjust="spacingAndGlyphs" textLength="30" x="863" y="165.0669">says</text><!--MD5=[c798c2a4aec0a6ca21e0c86c1213d9a9]
link Claus-Peter to goodbye--><path d="M816.85,122.033 C801.584,137.052 783.754,154.119 767,169 C756.504,178.323 744.948,188.02 733.906,197.033 " fill="none" id="Claus-Peter-to-goodbye" style="stroke:#A80036;stroke-width:1.0;"/><polygon fill="#A80036" points="729.864,200.321,739.3702,197.7458,733.7431,197.1663,734.3226,191.5392,729.864,200.321" style="stroke:#A80036;stroke-width:1.0;"/><text fill="#000000" font-family="sans-serif" font-size="13" lengthAdjust="spacingAndGlyphs" textLength="30" x="786" y="165.0669">says</text><!--MD5=[940c2c4b3e9a175da85c5c43da9a1942]
link Felix to goodbye--><path d="M746.458,114.947 C734.628,138.152 718.617,169.56 705.902,194.499 " fill="none" id="Felix-to-goodbye" style="stroke:#A80036;stroke-width:1.0;"/><polygon fill="#A80036" points="703.568,199.077,711.22,192.8764,705.8394,194.6227,704.0931,189.2422,703.568,199.077" style="stroke:#A80036;stroke-width:1.0;"/><text fill="#000000" font-family="sans-serif" font-size="13" lengthAdjust="spacingAndGlyphs" textLength="30" x="728" y="165.0669">says</text><!--MD5=[9026734ccdc3a0c933977b0de7bf7968]
link Stefan to goodbye--><path d="M683.652,122.167 C682.966,131.915 682.347,142.329 682,152 C681.729,159.551 681.83,161.446 682,169 C682.181,177.037 682.485,185.617 682.832,193.85 " fill="none" id="Stefan-to-goodbye" style="stroke:#A80036;stroke-width:1.0;"/><polygon fill="#A80036" points="683.053,198.924,686.6584,189.7588,682.8359,193.9287,678.6659,190.1062,683.053,198.924" style="stroke:#A80036;stroke-width:1.0;"/><text fill="#000000" font-family="sans-serif" font-size="13" lengthAdjust="spacingAndGlyphs" textLength="30" x="683" y="165.0669">says</text><!--MD5=[6a15de97a5a27597fa8b9bf00aa319b9]
link Klaus to goodbye--><path d="M622.092,122.003 C627.577,137.019 634.441,154.091 642,169 C646.354,177.588 651.544,186.453 656.786,194.802 " fill="none" id="Klaus-to-goodbye" style="stroke:#A80036;stroke-width:1.0;"/><polygon fill="#A80036" points="659.699,199.382,658.2445,189.6411,657.0158,195.1629,651.494,193.9342,659.699,199.382" style="stroke:#A80036;stroke-width:1.0;"/><text fill="#000000" font-family="sans-serif" font-size="13" lengthAdjust="spacingAndGlyphs" textLength="30" x="643" y="165.0669">says</text><!--MD5=[c583d9217ae71fc31b76872054257442]
link Detlef to goodbye--><path d="M555.164,119.374 C566.198,135.505 580.207,154.105 595,169 C604.998,179.067 616.616,188.802 628.116,197.576 " fill="none" id="Detlef-to-goodbye" style="stroke:#A80036;stroke-width:1.0;"/><polygon fill="#A80036" points="632.345,200.763,627.5661,192.1512,628.3524,197.7532,622.7504,198.5394,632.345,200.763" style="stroke:#A80036;stroke-width:1.0;"/><text fill="#000000" font-family="sans-serif" font-size="13" lengthAdjust="spacingAndGlyphs" textLength="30" x="596" y="165.0669">says</text><!--MD5=[c79ef75606a66b0cedcdf29c30c5884b]
link Shyam to goodbye--><path d="M474.196,105.983 C479.698,111.274 485.533,116.848 491,122 C513.434,143.139 516.386,151.852 542,169 C559.723,180.865 579.901,191.667 599.399,200.954 " fill="none" id="Shyam-to-goodbye" style="stroke:#A80036;stroke-width:1.0;"/><polygon fill="#A80036" points="604.339,203.282,597.9029,195.827,599.8161,201.1505,594.4926,203.0637,604.339,203.282" style="stroke:#A80036;stroke-width:1.0;"/><text fill="#000000" font-family="sans-serif" font-size="13" lengthAdjust="spacingAndGlyphs" textLength="30" x="543" y="165.0669">says</text><!--MD5=[f5c59e058414087efedfa6cb6b48a73f]
link MicNet to goodbye--><path d="M391.08,107.533 C396.495,112.521 402.308,117.58 408,122 C438.773,145.897 446.769,152.362 482,169 C511.524,182.943 544.75,195.161 575.64,205.191 " fill="none" id="MicNet-to-goodbye" style="stroke:#A80036;stroke-width:1.0;"/><polygon fill="#A80036" points="580.576,206.782,573.236,200.2151,575.8168,205.2489,570.783,207.8298,580.576,206.782" style="stroke:#A80036;stroke-width:1.0;"/><text fill="#000000" font-family="sans-serif" font-size="13" lengthAdjust="spacingAndGlyphs" textLength="30" x="483" y="165.0669">says</text><!--MD5=[1c62b5d5bd4eccbb39e7e380bd5055d6]
link Gordon to goodbye--><path d="M305.625,108.204 C311.172,113.035 317.124,117.863 323,122 C358.935,147.3 368.967,153.26 410,169 C455.133,186.313 506.207,200.143 551.983,210.6084 " fill="none" id="Gordon-to-goodbye" style="stroke:#A80036;stroke-width:1.0;"/><polygon fill="#A80036" points="556.965,211.739,549.0741,205.8455,552.0891,210.6319,547.3027,213.6469,556.965,211.739" style="stroke:#A80036;stroke-width:1.0;"/><text fill="#000000" font-family="sans-serif" font-size="13" lengthAdjust="spacingAndGlyphs" textLength="30" x="411" y="165.0669">says</text><!--MD5=[2cc34c692f3808a9497c4fbf3e7b4444]
link Arnold to goodbye--><path d="M217.619,107.644 C223.056,112.733 229.009,117.804 235,122 C273.91,149.254 285.913,154.034 331,169 C396.073,190.599 470.341,205.895 533.992,216.3255 " fill="none" id="Arnold-to-goodbye" style="stroke:#A80036;stroke-width:1.0;"/><polygon fill="#A80036" points="538.945,217.1308,530.7041,211.7376,534.0099,216.3279,529.4195,219.6338,538.945,217.1308" style="stroke:#A80036;stroke-width:1.0;"/><text fill="#000000" font-family="sans-serif" font-size="13" lengthAdjust="spacingAndGlyphs" textLength="30" x="332" y="165.0669">says</text><!--MD5=[ca45d86a6a0102107b848520db018317]
link Jens to goodbye--><path d="M135.792,104.085 C140.771,110.366 146.681,116.901 153,122 C189.042,151.082 201.883,154.91 246,169 C334.376,197.225 436.683,213.6094 520.291,223.0477 " fill="none" id="Jens-to-goodbye" style="stroke:#A80036;stroke-width:1.0;"/><polygon fill="#A80036" points="525.264,223.6035,516.7643,218.628,520.295,223.0478,515.8752,226.5784,525.264,223.6035" style="stroke:#A80036;stroke-width:1.0;"/><text fill="#000000" font-family="sans-serif" font-size="13" lengthAdjust="spacingAndGlyphs" textLength="30" x="247" y="165.0669">says</text><!--MD5=[4c78a10d2764931ac6c026d76a95cbfd]
link Mario to goodbye--><path d="M71.7192,105.017 C91.6165,125.939 124.416,155.794 160,169 C224.195,192.824 391.623,211.4501 520.303,222.854 " fill="none" id="Mario-to-goodbye" style="stroke:#A80036;stroke-width:1.0;"/><polygon fill="#A80036" points="525.632,223.3241,517.0189,218.5476,520.6514,222.8841,516.3149,226.5166,525.632,223.3241" style="stroke:#A80036;stroke-width:1.0;"/><text fill="#000000" font-family="sans-serif" font-size="13" lengthAdjust="spacingAndGlyphs" textLength="30" x="161" y="165.0669">says</text><!--MD5=[1688af3d77304995734e9b432ac44e16]
@startuml
folder "Glückwunschkarte" {
    usecase goodbye [
        Lieber Tom,
        wir wünschen dir viel Erfolg und
        alles Gute für die Zukunft!
    ]

    :Daniel: - -> goodbye: says
    :Rene: - -> goodbye: says
    :Frank: - -> goodbye: says
    :Janina: - -> goodbye: says
    :Hartwig: - -> goodbye: says
    :Claus-Peter: - -> goodbye: says
    :Felix: - -> goodbye: says
    :Stefan: - -> goodbye: says
    :Klaus: - -> goodbye: says
    :Detlef: - -> goodbye: says
    :Shyam: - -> goodbye: says
    :MicNet: - -> goodbye: says
    :Gordon: - -> goodbye: says
    :Frank: - -> goodbye: says
    :Arnold: - -> goodbye: says 
    :Jens: - -> goodbye: says
    :Mario: - -> goodbye: says
   
    
}
@enduml

PlantUML version 1.2020.23beta3(Unknown compile time)
(GPL source distribution)
Java Runtime: Java(TM) SE Runtime Environment
JVM: Java HotSpot(TM) 64-Bit Server VM
Default Encoding: UTF-8
Language: en
Country: US
--></g></svg>