<?xml version="1.0" encoding="UTF-8" standalone="no"?><svg xmlns="http://www.w3.org/2000/svg" xmlns:xlink="http://www.w3.org/1999/xlink" contentScriptType="application/ecmascript" contentStyleType="text/css" height="287px" preserveAspectRatio="none" style="width:1156px;height:287px;" version="1.1" viewBox="0 0 1156 287" width="1156px" zoomAndPan="magnify"><defs><filter height="300%" id="f1jbu0ejifu4e3" width="300%" x="-1" y="-1"><feGaussianBlur result="blurOut" stdDeviation="2.0"/><feColorMatrix in="blurOut" result="blurOut2" type="matrix" values="0 0 0 0 0 0 0 0 0 0 0 0 0 0 0 0 0 0 .4 0"/><feOffset dx="4.0" dy="4.0" in="blurOut2" result="blurOut3"/><feBlend in="SourceGraphic" in2="blurOut3" mode="normal"/></filter></defs><g><!--MD5=[66092f187a140d509edf35c12b1eec33]
cluster Glückwunschkarte--><polygon fill="#FFFFFF" filter="url(#f1jbu0ejifu4e3)" points="16,6,171,6,178,28.2969,1139,28.2969,1139,280,16,280,16,6" style="stroke:#000000;stroke-width:1.5;"/><line style="stroke:#000000;stroke-width:1.5;" x1="16" x2="178" y1="28.2969" y2="28.2969"/><text fill="#000000" font-family="sans-serif" font-size="14" font-weight="bold" lengthAdjust="spacingAndGlyphs" textLength="149" x="20" y="20.9951">Glückwunschkarte</text><ellipse cx="586.9484" cy="231.3449" fill="#FEFECE" filter="url(#f1jbu0ejifu4e3)" rx="137.4484" ry="32.3449" style="stroke:#A80036;stroke-width:1.5;"/><text fill="#000000" font-family="sans-serif" font-size="14" lengthAdjust="spacingAndGlyphs" textLength="86" x="543.9484" y="216.3382">Lieber Tom,</text><text fill="#000000" font-family="sans-serif" font-size="14" lengthAdjust="spacingAndGlyphs" textLength="224" x="474.9484" y="232.635">wir wünschen dir viel Erfolg und</text><text fill="#000000" font-family="sans-serif" font-size="14" lengthAdjust="spacingAndGlyphs" textLength="187" x="493.4484" y="248.9319">alles Gute für die Zukunft!</text><!--MD5=[c1b96b8b8683df5ba748b0cb12cbbe3c]
entity Daniel--><ellipse cx="1100" cy="50.5" fill="#FEFECE" filter="url(#f1jbu0ejifu4e3)" rx="8" ry="8" style="stroke:#A80036;stroke-width:1.5;"/><path d="M1100,58.5 L1100,85.5 M1087,66.5 L1113,66.5 M1100,85.5 L1087,100.5 M1100,85.5 L1113,100.5 " fill="none" filter="url(#f1jbu0ejifu4e3)" style="stroke:#A80036;stroke-width:1.5;"/><text fill="#000000" font-family="sans-serif" font-size="14" lengthAdjust="spacingAndGlyphs" textLength="45" x="1077.5" y="118.9951">Daniel</text><!--MD5=[a9423008d16f12aa17a26e16f8cb43d5]
entity Rene--><ellipse cx="1024" cy="50.5" fill="#FEFECE" filter="url(#f1jbu0ejifu4e3)" rx="8" ry="8" style="stroke:#A80036;stroke-width:1.5;"/><path d="M1024,58.5 L1024,85.5 M1011,66.5 L1037,66.5 M1024,85.5 L1011,100.5 M1024,85.5 L1037,100.5 " fill="none" filter="url(#f1jbu0ejifu4e3)" style="stroke:#A80036;stroke-width:1.5;"/><text fill="#000000" font-family="sans-serif" font-size="14" lengthAdjust="spacingAndGlyphs" textLength="37" x="1005.5" y="118.9951">Rene</text><!--MD5=[fa3845fac8be698dd000fa68d5a2e3be]
entity Frank--><ellipse cx="950" cy="50.5" fill="#FEFECE" filter="url(#f1jbu0ejifu4e3)" rx="8" ry="8" style="stroke:#A80036;stroke-width:1.5;"/><path d="M950,58.5 L950,85.5 M937,66.5 L963,66.5 M950,85.5 L937,100.5 M950,85.5 L963,100.5 " fill="none" filter="url(#f1jbu0ejifu4e3)" style="stroke:#A80036;stroke-width:1.5;"/><text fill="#000000" font-family="sans-serif" font-size="14" lengthAdjust="spacingAndGlyphs" textLength="40" x="930" y="118.9951">Frank</text><!--MD5=[0630ea7ba86524916c58551553813136]
entity Janina--><ellipse cx="874" cy="50.5" fill="#FEFECE" filter="url(#f1jbu0ejifu4e3)" rx="8" ry="8" style="stroke:#A80036;stroke-width:1.5;"/><path d="M874,58.5 L874,85.5 M861,66.5 L887,66.5 M874,85.5 L861,100.5 M874,85.5 L887,100.5 " fill="none" filter="url(#f1jbu0ejifu4e3)" style="stroke:#A80036;stroke-width:1.5;"/><text fill="#000000" font-family="sans-serif" font-size="14" lengthAdjust="spacingAndGlyphs" textLength="42" x="853" y="118.9951">Janina</text><!--MD5=[256e55fea0fa3198e7872be6d62206e7]
entity Hartwig--><ellipse cx="790" cy="50.5" fill="#FEFECE" filter="url(#f1jbu0ejifu4e3)" rx="8" ry="8" style="stroke:#A80036;stroke-width:1.5;"/><path d="M790,58.5 L790,85.5 M777,66.5 L803,66.5 M790,85.5 L777,100.5 M790,85.5 L803,100.5 " fill="none" filter="url(#f1jbu0ejifu4e3)" style="stroke:#A80036;stroke-width:1.5;"/><text fill="#000000" font-family="sans-serif" font-size="14" lengthAdjust="spacingAndGlyphs" textLength="55" x="762.5" y="118.9951">Hartwig</text><!--MD5=[9b95b9c18cb1e472571f5f163adcbf08]
entity Claus-Peter--><ellipse cx="686" cy="50.5" fill="#FEFECE" filter="url(#f1jbu0ejifu4e3)" rx="8" ry="8" style="stroke:#A80036;stroke-width:1.5;"/><path d="M686,58.5 L686,85.5 M673,66.5 L699,66.5 M686,85.5 L673,100.5 M686,85.5 L699,100.5 " fill="none" filter="url(#f1jbu0ejifu4e3)" style="stroke:#A80036;stroke-width:1.5;"/><text fill="#000000" font-family="sans-serif" font-size="14" lengthAdjust="spacingAndGlyphs" textLength="83" x="644.5" y="118.9951">Claus-Peter</text><!--MD5=[b1b6f11ea69a5e1a18d70aafc16bcf68]
entity Felix--><ellipse cx="593" cy="50.5" fill="#FEFECE" filter="url(#f1jbu0ejifu4e3)" rx="8" ry="8" style="stroke:#A80036;stroke-width:1.5;"/><path d="M593,58.5 L593,85.5 M580,66.5 L606,66.5 M593,85.5 L580,100.5 M593,85.5 L606,100.5 " fill="none" filter="url(#f1jbu0ejifu4e3)" style="stroke:#A80036;stroke-width:1.5;"/><text fill="#000000" font-family="sans-serif" font-size="14" lengthAdjust="spacingAndGlyphs" textLength="33" x="576.5" y="118.9951">Felix</text><!--MD5=[0d988fe91444ec70c41456c736a04fce]
entity Stefan--><ellipse cx="517" cy="50.5" fill="#FEFECE" filter="url(#f1jbu0ejifu4e3)" rx="8" ry="8" style="stroke:#A80036;stroke-width:1.5;"/><path d="M517,58.5 L517,85.5 M504,66.5 L530,66.5 M517,85.5 L504,100.5 M517,85.5 L530,100.5 " fill="none" filter="url(#f1jbu0ejifu4e3)" style="stroke:#A80036;stroke-width:1.5;"/><text fill="#000000" font-family="sans-serif" font-size="14" lengthAdjust="spacingAndGlyphs" textLength="48" x="493" y="118.9951">Stefan</text><!--MD5=[dd3cab79017c4025ff97f2ffe66ce617]
entity Klaus--><ellipse cx="439" cy="50.5" fill="#FEFECE" filter="url(#f1jbu0ejifu4e3)" rx="8" ry="8" style="stroke:#A80036;stroke-width:1.5;"/><path d="M439,58.5 L439,85.5 M426,66.5 L452,66.5 M439,85.5 L426,100.5 M439,85.5 L452,100.5 " fill="none" filter="url(#f1jbu0ejifu4e3)" style="stroke:#A80036;stroke-width:1.5;"/><text fill="#000000" font-family="sans-serif" font-size="14" lengthAdjust="spacingAndGlyphs" textLength="37" x="420.5" y="118.9951">Klaus</text><!--MD5=[52f72cad88ef2c18c4ef0e5aee04cdc6]
entity Detlef--><ellipse cx="362" cy="50.5" fill="#FEFECE" filter="url(#f1jbu0ejifu4e3)" rx="8" ry="8" style="stroke:#A80036;stroke-width:1.5;"/><path d="M362,58.5 L362,85.5 M349,66.5 L375,66.5 M362,85.5 L349,100.5 M362,85.5 L375,100.5 " fill="none" filter="url(#f1jbu0ejifu4e3)" style="stroke:#A80036;stroke-width:1.5;"/><text fill="#000000" font-family="sans-serif" font-size="14" lengthAdjust="spacingAndGlyphs" textLength="46" x="339" y="118.9951">Detlef</text><!--MD5=[adf99b581cb8d84a603ed1e57d0cd319]
entity Shyam--><ellipse cx="280" cy="50.5" fill="#FEFECE" filter="url(#f1jbu0ejifu4e3)" rx="8" ry="8" style="stroke:#A80036;stroke-width:1.5;"/><path d="M280,58.5 L280,85.5 M267,66.5 L293,66.5 M280,85.5 L267,100.5 M280,85.5 L293,100.5 " fill="none" filter="url(#f1jbu0ejifu4e3)" style="stroke:#A80036;stroke-width:1.5;"/><text fill="#000000" font-family="sans-serif" font-size="14" lengthAdjust="spacingAndGlyphs" textLength="48" x="256" y="118.9951">Shyam</text><!--MD5=[f9dd6b39be9a99c92cca373d23c3a60a]
entity MicNet--><ellipse cx="196" cy="50.5" fill="#FEFECE" filter="url(#f1jbu0ejifu4e3)" rx="8" ry="8" style="stroke:#A80036;stroke-width:1.5;"/><path d="M196,58.5 L196,85.5 M183,66.5 L209,66.5 M196,85.5 L183,100.5 M196,85.5 L209,100.5 " fill="none" filter="url(#f1jbu0ejifu4e3)" style="stroke:#A80036;stroke-width:1.5;"/><text fill="#000000" font-family="sans-serif" font-size="14" lengthAdjust="spacingAndGlyphs" textLength="50" x="171" y="118.9951">MicNet</text><!--MD5=[feb5d7b50972393c5935af67c12f6c23]
entity Jens--><ellipse cx="121" cy="50.5" fill="#FEFECE" filter="url(#f1jbu0ejifu4e3)" rx="8" ry="8" style="stroke:#A80036;stroke-width:1.5;"/><path d="M121,58.5 L121,85.5 M108,66.5 L134,66.5 M121,85.5 L108,100.5 M121,85.5 L134,100.5 " fill="none" filter="url(#f1jbu0ejifu4e3)" style="stroke:#A80036;stroke-width:1.5;"/><text fill="#000000" font-family="sans-serif" font-size="14" lengthAdjust="spacingAndGlyphs" textLength="29" x="106.5" y="118.9951">Jens</text><!--MD5=[acf15012f68eca4cd8d497cab17f1cc1]
entity Mario--><ellipse cx="52" cy="50.5" fill="#FEFECE" filter="url(#f1jbu0ejifu4e3)" rx="8" ry="8" style="stroke:#A80036;stroke-width:1.5;"/><path d="M52,58.5 L52,85.5 M39,66.5 L65,66.5 M52,85.5 L39,100.5 M52,85.5 L65,100.5 " fill="none" filter="url(#f1jbu0ejifu4e3)" style="stroke:#A80036;stroke-width:1.5;"/><text fill="#000000" font-family="sans-serif" font-size="14" lengthAdjust="spacingAndGlyphs" textLength="39" x="32.5" y="118.9951">Mario</text><!--MD5=[134f007453776ecca3a6acf8d78233db]
link Daniel to goodbye--><path d="M1077.22,118.387 C1063.73,136.565 1044.98,157.228 1023,169 C972.505,196.0492 831.701,212.5055 723.635,221.501 " fill="none" id="Daniel-to-goodbye" style="stroke:#A80036;stroke-width:1.0;"/><polygon fill="#A80036" points="718.514,221.9238,727.8126,225.1697,723.497,221.5124,727.1543,217.1968,718.514,221.9238" style="stroke:#A80036;stroke-width:1.0;"/><text fill="#000000" font-family="sans-serif" font-size="13" lengthAdjust="spacingAndGlyphs" textLength="30" x="1048" y="165.0669">says</text><!--MD5=[db63f63d1dde73e9ed38631a79176a49]
link Rene to goodbye--><path d="M1005.43,121.666 C995.286,138.868 981.067,157.689 963,169 C923.245,193.889 812.145,210.0758 720.948,219.564 " fill="none" id="Rene-to-goodbye" style="stroke:#A80036;stroke-width:1.0;"/><polygon fill="#A80036" points="715.797,220.0949,725.1598,223.1507,720.7706,219.5821,724.3393,215.1929,715.797,220.0949" style="stroke:#A80036;stroke-width:1.0;"/><text fill="#000000" font-family="sans-serif" font-size="13" lengthAdjust="spacingAndGlyphs" textLength="30" x="984" y="165.0669">says</text><!--MD5=[644a0aa15c78204cc8702eb030db7665]
link Frank to goodbye--><path d="M929.792,105.872 C924.327,111.507 918.2,117.263 912,122 C877.389,148.446 866.515,153.005 826,169 C784.259,185.479 736.665,198.7688 694.995,208.7201 " fill="none" id="Frank-to-goodbye" style="stroke:#A80036;stroke-width:1.0;"/><polygon fill="#A80036" points="689.944,209.9172,699.6238,211.7343,694.8093,208.7643,697.7792,203.9498,689.944,209.9172" style="stroke:#A80036;stroke-width:1.0;"/><text fill="#000000" font-family="sans-serif" font-size="13" lengthAdjust="spacingAndGlyphs" textLength="30" x="867" y="165.0669">says</text><!--MD5=[644a0aa15c78204cc8702eb030db7665]
link Frank to goodbye--><path d="M938.569,122.154 C931.748,139.03 921.345,157.447 906,169 C876.133,191.486 791.655,207.1759 717.135,217.078 " fill="none" id="Frank-to-goodbye-1" style="stroke:#A80036;stroke-width:1.0;"/><polygon fill="#A80036" points="711.788,217.7809,721.2324,220.5742,716.7454,217.1295,720.1901,212.6424,711.788,217.7809" style="stroke:#A80036;stroke-width:1.0;"/><text fill="#000000" font-family="sans-serif" font-size="13" lengthAdjust="spacingAndGlyphs" textLength="30" x="924" y="165.0669">says</text><!--MD5=[a7c4c016ed3720d98aa871a82b235603]
link Janina to goodbye--><path d="M852.866,106.38 C847.361,111.88 841.22,117.445 835,122 C785.962,157.907 723.178,185.226 673.051,203.4689 " fill="none" id="Janina-to-goodbye" style="stroke:#A80036;stroke-width:1.0;"/><polygon fill="#A80036" points="668.24,205.2061,678.0636,205.9109,672.9427,203.5076,675.346,198.3867,668.24,205.2061" style="stroke:#A80036;stroke-width:1.0;"/><text fill="#000000" font-family="sans-serif" font-size="13" lengthAdjust="spacingAndGlyphs" textLength="30" x="787" y="165.0669">says</text><!--MD5=[73e5cbdd5fe8c098f32d0e922db6c3b3]
link Hartwig to goodbye--><path d="M762.263,107.57 C756.631,112.454 750.689,117.463 745,122 C710.641,149.401 669.682,177.408 638.077,198.1016 " fill="none" id="Hartwig-to-goodbye" style="stroke:#A80036;stroke-width:1.0;"/><polygon fill="#A80036" points="633.878,200.8441,643.6005,199.2715,638.0642,198.1099,639.2257,192.5736,633.878,200.8441" style="stroke:#A80036;stroke-width:1.0;"/><text fill="#000000" font-family="sans-serif" font-size="13" lengthAdjust="spacingAndGlyphs" textLength="30" x="704" y="165.0669">says</text><!--MD5=[c798c2a4aec0a6ca21e0c86c1213d9a9]
link Claus-Peter to goodbye--><path d="M659.47,122.161 C644.328,144.798 625.501,172.943 610.832,194.873 " fill="none" id="Claus-Peter-to-goodbye" style="stroke:#A80036;stroke-width:1.0;"/><polygon fill="#A80036" points="607.956,199.1724,616.2848,193.9159,610.7361,195.0165,609.6355,189.4678,607.956,199.1724" style="stroke:#A80036;stroke-width:1.0;"/><text fill="#000000" font-family="sans-serif" font-size="13" lengthAdjust="spacingAndGlyphs" textLength="30" x="641" y="165.0669">says</text><!--MD5=[940c2c4b3e9a175da85c5c43da9a1942]
link Felix to goodbye--><path d="M586.975,122.108 C585.74,131.857 584.626,142.287 584,152 C583.514,159.54 583.816,161.447 584,169 C584.196,177.053 584.537,185.695 584.92,193.88 " fill="none" id="Felix-to-goodbye" style="stroke:#A80036;stroke-width:1.0;"/><polygon fill="#A80036" points="585.163,198.908,588.7238,189.7254,584.9216,193.9138,580.7331,190.1116,585.163,198.908" style="stroke:#A80036;stroke-width:1.0;"/><text fill="#000000" font-family="sans-serif" font-size="13" lengthAdjust="spacingAndGlyphs" textLength="30" x="585" y="165.0669">says</text><!--MD5=[9026734ccdc3a0c933977b0de7bf7968]
link Stefan to goodbye--><path d="M526.627,122.239 C530.982,137.284 536.79,154.313 544,169 C548.311,177.782 553.793,186.704 559.388,194.927 " fill="none" id="Stefan-to-goodbye" style="stroke:#A80036;stroke-width:1.0;"/><polygon fill="#A80036" points="562.501,199.4191,560.6614,189.7436,559.6526,195.3098,554.0864,194.301,562.501,199.4191" style="stroke:#A80036;stroke-width:1.0;"/><text fill="#000000" font-family="sans-serif" font-size="13" lengthAdjust="spacingAndGlyphs" textLength="30" x="545" y="165.0669">says</text><!--MD5=[6a15de97a5a27597fa8b9bf00aa319b9]
link Klaus to goodbye--><path d="M457.722,115.86 C468.234,132.888 482.366,153.271 498,169 C508.468,179.532 520.959,189.424 533.225,198.0677 " fill="none" id="Klaus-to-goodbye" style="stroke:#A80036;stroke-width:1.0;"/><polygon fill="#A80036" points="537.373,200.9503,532.2663,192.5288,533.2675,198.0964,527.7,199.0976,537.373,200.9503" style="stroke:#A80036;stroke-width:1.0;"/><text fill="#000000" font-family="sans-serif" font-size="13" lengthAdjust="spacingAndGlyphs" textLength="30" x="499" y="165.0669">says</text><!--MD5=[c583d9217ae71fc31b76872054257442]
link Detlef to goodbye--><path d="M385.328,112.276 C400.755,130.472 422.27,153.202 445,169 C463.766,182.043 485.74,193.208 506.717,202.304 " fill="none" id="Detlef-to-goodbye" style="stroke:#A80036;stroke-width:1.0;"/><polygon fill="#A80036" points="511.458,204.3321,504.7555,197.1157,506.8607,202.3662,501.6101,204.4714,511.458,204.3321" style="stroke:#A80036;stroke-width:1.0;"/><text fill="#000000" font-family="sans-serif" font-size="13" lengthAdjust="spacingAndGlyphs" textLength="30" x="446" y="165.0669">says</text><!--MD5=[c79ef75606a66b0cedcdf29c30c5884b]
link Shyam to goodbye--><path d="M304.014,107.732 C323.946,127.235 353.959,153.447 385,169 C416.395,184.73 452.577,197.2991 485.568,206.8702 " fill="none" id="Shyam-to-goodbye" style="stroke:#A80036;stroke-width:1.0;"/><polygon fill="#A80036" points="490.411,208.2606,482.8628,201.9341,485.6048,206.882,480.657,209.624,490.411,208.2606" style="stroke:#A80036;stroke-width:1.0;"/><text fill="#000000" font-family="sans-serif" font-size="13" lengthAdjust="spacingAndGlyphs" textLength="30" x="386" y="165.0669">says</text><!--MD5=[f5c59e058414087efedfa6cb6b48a73f]
link MicNet to goodbye--><path d="M221.38,108.15 C226.678,112.986 232.37,117.829 238,122 C271.753,147.005 280.888,153.676 320,169 C367.754,187.71 422.645,201.5693 470.191,211.3446 " fill="none" id="MicNet-to-goodbye" style="stroke:#A80036;stroke-width:1.0;"/><polygon fill="#A80036" points="475.358,212.397,467.3381,206.6802,470.4587,211.3985,465.7405,214.519,475.358,212.397" style="stroke:#A80036;stroke-width:1.0;"/><text fill="#000000" font-family="sans-serif" font-size="13" lengthAdjust="spacingAndGlyphs" textLength="30" x="321" y="165.0669">says</text><!--MD5=[ca45d86a6a0102107b848520db018317]
link Jens to goodbye--><path d="M135.511,103.624 C140.558,110.027 146.578,116.748 153,122 C187.93,150.571 200.296,154.416 243,169 C311.965,192.552 391.949,207.5423 457.426,216.82 " fill="none" id="Jens-to-goodbye" style="stroke:#A80036;stroke-width:1.0;"/><polygon fill="#A80036" points="462.514,217.5335,454.1566,212.3225,457.5624,216.8392,453.0457,220.245,462.514,217.5335" style="stroke:#A80036;stroke-width:1.0;"/><text fill="#000000" font-family="sans-serif" font-size="13" lengthAdjust="spacingAndGlyphs" textLength="30" x="244" y="165.0669">says</text><!--MD5=[4c78a10d2764931ac6c026d76a95cbfd]
link Mario to goodbye--><path d="M71.548,104.87 C91.2696,125.682 123.771,155.457 159,169 C250.716,204.2574 360.534,219.5384 445.966,226.0536 " fill="none" id="Mario-to-goodbye" style="stroke:#A80036;stroke-width:1.0;"/><polygon fill="#A80036" points="451.042,226.4326,442.364,221.7751,446.0558,226.0612,441.7697,229.753,451.042,226.4326" style="stroke:#A80036;stroke-width:1.0;"/><text fill="#000000" font-family="sans-serif" font-size="13" lengthAdjust="spacingAndGlyphs" textLength="30" x="160" y="165.0669">says</text><!--MD5=[c77adbd3e3372f58cad8680286846d80]
@startuml
folder "Glückwunschkarte" {
    usecase goodbye [
        Lieber Tom,
        wir wünschen dir viel Erfolg und
        alles Gute für die Zukunft!
    ]

    :Daniel: - -> goodbye: says
    :Rene: - -> goodbye: says
    :Frank: - -> goodbye: says
    :Janina: - -> goodbye: says
    :Hartwig: - -> goodbye: says
    :Claus-Peter: - -> goodbye: says
    :Felix: - -> goodbye: says
    :Stefan: - -> goodbye: says
    :Klaus: - -> goodbye: says
    :Detlef: - -> goodbye: says
    :Shyam: - -> goodbye: says
    :MicNet: - -> goodbye: says
    :Frank: - -> goodbye: says
    :Jens: - -> goodbye: says
    :Mario: - -> goodbye: says
    
}
@enduml

PlantUML version 1.2020.22(Sun Dec 06 09:36:27 UTC 2020)
(GPL source distribution)
Java Runtime: Java(TM) SE Runtime Environment
JVM: Java HotSpot(TM) 64-Bit Server VM
Default Encoding: UTF-8
Language: en
Country: US
--></g></svg>