<?xml version="1.0" encoding="UTF-8" standalone="no"?><svg xmlns="http://www.w3.org/2000/svg" xmlns:xlink="http://www.w3.org/1999/xlink" contentScriptType="application/ecmascript" contentStyleType="text/css" height="287px" preserveAspectRatio="none" style="width:1238px;height:287px;" version="1.1" viewBox="0 0 1238 287" width="1238px" zoomAndPan="magnify"><defs><filter height="300%" id="fkykhukmbrzum" width="300%" x="-1" y="-1"><feGaussianBlur result="blurOut" stdDeviation="2.0"/><feColorMatrix in="blurOut" result="blurOut2" type="matrix" values="0 0 0 0 0 0 0 0 0 0 0 0 0 0 0 0 0 0 .4 0"/><feOffset dx="4.0" dy="4.0" in="blurOut2" result="blurOut3"/><feBlend in="SourceGraphic" in2="blurOut3" mode="normal"/></filter></defs><g><!--MD5=[66092f187a140d509edf35c12b1eec33]
cluster Glückwunschkarte--><polygon fill="#FFFFFF" filter="url(#fkykhukmbrzum)" points="16,6,171,6,178,28.2969,1221,28.2969,1221,280,16,280,16,6" style="stroke:#000000;stroke-width:1.5;"/><line style="stroke:#000000;stroke-width:1.5;" x1="16" x2="178" y1="28.2969" y2="28.2969"/><text fill="#000000" font-family="sans-serif" font-size="14" font-weight="bold" lengthAdjust="spacingAndGlyphs" textLength="149" x="20" y="20.9951">Glückwunschkarte</text><ellipse cx="632.9484" cy="231.3449" fill="#FEFECE" filter="url(#fkykhukmbrzum)" rx="137.4484" ry="32.3449" style="stroke:#A80036;stroke-width:1.5;"/><text fill="#000000" font-family="sans-serif" font-size="14" lengthAdjust="spacingAndGlyphs" textLength="86" x="589.9484" y="216.3382">Lieber Tom,</text><text fill="#000000" font-family="sans-serif" font-size="14" lengthAdjust="spacingAndGlyphs" textLength="224" x="520.9484" y="232.635">wir wünschen dir viel Erfolg und</text><text fill="#000000" font-family="sans-serif" font-size="14" lengthAdjust="spacingAndGlyphs" textLength="187" x="539.4484" y="248.9319">alles Gute für die Zukunft!</text><!--MD5=[c1b96b8b8683df5ba748b0cb12cbbe3c]
entity Daniel--><ellipse cx="1182" cy="50.5" fill="#FEFECE" filter="url(#fkykhukmbrzum)" rx="8" ry="8" style="stroke:#A80036;stroke-width:1.5;"/><path d="M1182,58.5 L1182,85.5 M1169,66.5 L1195,66.5 M1182,85.5 L1169,100.5 M1182,85.5 L1195,100.5 " fill="none" filter="url(#fkykhukmbrzum)" style="stroke:#A80036;stroke-width:1.5;"/><text fill="#000000" font-family="sans-serif" font-size="14" lengthAdjust="spacingAndGlyphs" textLength="45" x="1159.5" y="118.9951">Daniel</text><!--MD5=[a9423008d16f12aa17a26e16f8cb43d5]
entity Rene--><ellipse cx="1106" cy="50.5" fill="#FEFECE" filter="url(#fkykhukmbrzum)" rx="8" ry="8" style="stroke:#A80036;stroke-width:1.5;"/><path d="M1106,58.5 L1106,85.5 M1093,66.5 L1119,66.5 M1106,85.5 L1093,100.5 M1106,85.5 L1119,100.5 " fill="none" filter="url(#fkykhukmbrzum)" style="stroke:#A80036;stroke-width:1.5;"/><text fill="#000000" font-family="sans-serif" font-size="14" lengthAdjust="spacingAndGlyphs" textLength="37" x="1087.5" y="118.9951">Rene</text><!--MD5=[fa3845fac8be698dd000fa68d5a2e3be]
entity Frank--><ellipse cx="1032" cy="50.5" fill="#FEFECE" filter="url(#fkykhukmbrzum)" rx="8" ry="8" style="stroke:#A80036;stroke-width:1.5;"/><path d="M1032,58.5 L1032,85.5 M1019,66.5 L1045,66.5 M1032,85.5 L1019,100.5 M1032,85.5 L1045,100.5 " fill="none" filter="url(#fkykhukmbrzum)" style="stroke:#A80036;stroke-width:1.5;"/><text fill="#000000" font-family="sans-serif" font-size="14" lengthAdjust="spacingAndGlyphs" textLength="40" x="1012" y="118.9951">Frank</text><!--MD5=[0630ea7ba86524916c58551553813136]
entity Janina--><ellipse cx="956" cy="50.5" fill="#FEFECE" filter="url(#fkykhukmbrzum)" rx="8" ry="8" style="stroke:#A80036;stroke-width:1.5;"/><path d="M956,58.5 L956,85.5 M943,66.5 L969,66.5 M956,85.5 L943,100.5 M956,85.5 L969,100.5 " fill="none" filter="url(#fkykhukmbrzum)" style="stroke:#A80036;stroke-width:1.5;"/><text fill="#000000" font-family="sans-serif" font-size="14" lengthAdjust="spacingAndGlyphs" textLength="42" x="935" y="118.9951">Janina</text><!--MD5=[256e55fea0fa3198e7872be6d62206e7]
entity Hartwig--><ellipse cx="872" cy="50.5" fill="#FEFECE" filter="url(#fkykhukmbrzum)" rx="8" ry="8" style="stroke:#A80036;stroke-width:1.5;"/><path d="M872,58.5 L872,85.5 M859,66.5 L885,66.5 M872,85.5 L859,100.5 M872,85.5 L885,100.5 " fill="none" filter="url(#fkykhukmbrzum)" style="stroke:#A80036;stroke-width:1.5;"/><text fill="#000000" font-family="sans-serif" font-size="14" lengthAdjust="spacingAndGlyphs" textLength="55" x="844.5" y="118.9951">Hartwig</text><!--MD5=[9b95b9c18cb1e472571f5f163adcbf08]
entity Claus-Peter--><ellipse cx="768" cy="50.5" fill="#FEFECE" filter="url(#fkykhukmbrzum)" rx="8" ry="8" style="stroke:#A80036;stroke-width:1.5;"/><path d="M768,58.5 L768,85.5 M755,66.5 L781,66.5 M768,85.5 L755,100.5 M768,85.5 L781,100.5 " fill="none" filter="url(#fkykhukmbrzum)" style="stroke:#A80036;stroke-width:1.5;"/><text fill="#000000" font-family="sans-serif" font-size="14" lengthAdjust="spacingAndGlyphs" textLength="83" x="726.5" y="118.9951">Claus-Peter</text><!--MD5=[b1b6f11ea69a5e1a18d70aafc16bcf68]
entity Felix--><ellipse cx="675" cy="50.5" fill="#FEFECE" filter="url(#fkykhukmbrzum)" rx="8" ry="8" style="stroke:#A80036;stroke-width:1.5;"/><path d="M675,58.5 L675,85.5 M662,66.5 L688,66.5 M675,85.5 L662,100.5 M675,85.5 L688,100.5 " fill="none" filter="url(#fkykhukmbrzum)" style="stroke:#A80036;stroke-width:1.5;"/><text fill="#000000" font-family="sans-serif" font-size="14" lengthAdjust="spacingAndGlyphs" textLength="33" x="658.5" y="118.9951">Felix</text><!--MD5=[0d988fe91444ec70c41456c736a04fce]
entity Stefan--><ellipse cx="599" cy="50.5" fill="#FEFECE" filter="url(#fkykhukmbrzum)" rx="8" ry="8" style="stroke:#A80036;stroke-width:1.5;"/><path d="M599,58.5 L599,85.5 M586,66.5 L612,66.5 M599,85.5 L586,100.5 M599,85.5 L612,100.5 " fill="none" filter="url(#fkykhukmbrzum)" style="stroke:#A80036;stroke-width:1.5;"/><text fill="#000000" font-family="sans-serif" font-size="14" lengthAdjust="spacingAndGlyphs" textLength="48" x="575" y="118.9951">Stefan</text><!--MD5=[dd3cab79017c4025ff97f2ffe66ce617]
entity Klaus--><ellipse cx="521" cy="50.5" fill="#FEFECE" filter="url(#fkykhukmbrzum)" rx="8" ry="8" style="stroke:#A80036;stroke-width:1.5;"/><path d="M521,58.5 L521,85.5 M508,66.5 L534,66.5 M521,85.5 L508,100.5 M521,85.5 L534,100.5 " fill="none" filter="url(#fkykhukmbrzum)" style="stroke:#A80036;stroke-width:1.5;"/><text fill="#000000" font-family="sans-serif" font-size="14" lengthAdjust="spacingAndGlyphs" textLength="37" x="502.5" y="118.9951">Klaus</text><!--MD5=[52f72cad88ef2c18c4ef0e5aee04cdc6]
entity Detlef--><ellipse cx="444" cy="50.5" fill="#FEFECE" filter="url(#fkykhukmbrzum)" rx="8" ry="8" style="stroke:#A80036;stroke-width:1.5;"/><path d="M444,58.5 L444,85.5 M431,66.5 L457,66.5 M444,85.5 L431,100.5 M444,85.5 L457,100.5 " fill="none" filter="url(#fkykhukmbrzum)" style="stroke:#A80036;stroke-width:1.5;"/><text fill="#000000" font-family="sans-serif" font-size="14" lengthAdjust="spacingAndGlyphs" textLength="46" x="421" y="118.9951">Detlef</text><!--MD5=[adf99b581cb8d84a603ed1e57d0cd319]
entity Shyam--><ellipse cx="362" cy="50.5" fill="#FEFECE" filter="url(#fkykhukmbrzum)" rx="8" ry="8" style="stroke:#A80036;stroke-width:1.5;"/><path d="M362,58.5 L362,85.5 M349,66.5 L375,66.5 M362,85.5 L349,100.5 M362,85.5 L375,100.5 " fill="none" filter="url(#fkykhukmbrzum)" style="stroke:#A80036;stroke-width:1.5;"/><text fill="#000000" font-family="sans-serif" font-size="14" lengthAdjust="spacingAndGlyphs" textLength="48" x="338" y="118.9951">Shyam</text><!--MD5=[f9dd6b39be9a99c92cca373d23c3a60a]
entity MicNet--><ellipse cx="278" cy="50.5" fill="#FEFECE" filter="url(#fkykhukmbrzum)" rx="8" ry="8" style="stroke:#A80036;stroke-width:1.5;"/><path d="M278,58.5 L278,85.5 M265,66.5 L291,66.5 M278,85.5 L265,100.5 M278,85.5 L291,100.5 " fill="none" filter="url(#fkykhukmbrzum)" style="stroke:#A80036;stroke-width:1.5;"/><text fill="#000000" font-family="sans-serif" font-size="14" lengthAdjust="spacingAndGlyphs" textLength="50" x="253" y="118.9951">MicNet</text><!--MD5=[fcbda0a99a206a8c315729d3b009c889]
entity Arnold--><ellipse cx="194" cy="50.5" fill="#FEFECE" filter="url(#fkykhukmbrzum)" rx="8" ry="8" style="stroke:#A80036;stroke-width:1.5;"/><path d="M194,58.5 L194,85.5 M181,66.5 L207,66.5 M194,85.5 L181,100.5 M194,85.5 L207,100.5 " fill="none" filter="url(#fkykhukmbrzum)" style="stroke:#A80036;stroke-width:1.5;"/><text fill="#000000" font-family="sans-serif" font-size="14" lengthAdjust="spacingAndGlyphs" textLength="47" x="170.5" y="118.9951">Arnold</text><!--MD5=[feb5d7b50972393c5935af67c12f6c23]
entity Jens--><ellipse cx="121" cy="50.5" fill="#FEFECE" filter="url(#fkykhukmbrzum)" rx="8" ry="8" style="stroke:#A80036;stroke-width:1.5;"/><path d="M121,58.5 L121,85.5 M108,66.5 L134,66.5 M121,85.5 L108,100.5 M121,85.5 L134,100.5 " fill="none" filter="url(#fkykhukmbrzum)" style="stroke:#A80036;stroke-width:1.5;"/><text fill="#000000" font-family="sans-serif" font-size="14" lengthAdjust="spacingAndGlyphs" textLength="29" x="106.5" y="118.9951">Jens</text><!--MD5=[acf15012f68eca4cd8d497cab17f1cc1]
entity Mario--><ellipse cx="52" cy="50.5" fill="#FEFECE" filter="url(#fkykhukmbrzum)" rx="8" ry="8" style="stroke:#A80036;stroke-width:1.5;"/><path d="M52,58.5 L52,85.5 M39,66.5 L65,66.5 M52,85.5 L39,100.5 M52,85.5 L65,100.5 " fill="none" filter="url(#fkykhukmbrzum)" style="stroke:#A80036;stroke-width:1.5;"/><text fill="#000000" font-family="sans-serif" font-size="14" lengthAdjust="spacingAndGlyphs" textLength="39" x="32.5" y="118.9951">Mario</text><!--MD5=[134f007453776ecca3a6acf8d78233db]
link Daniel to goodbye--><path d="M1159.27,118.48 C1145.79,136.685 1127.04,157.344 1105,169 C1048.81,198.7183 889.707,214.9281 771.667,223.1329 " fill="none" id="Daniel-to-goodbye" style="stroke:#A80036;stroke-width:1.0;"/><polygon fill="#A80036" points="766.43,223.4935,775.6841,226.8643,771.4181,223.1492,775.1332,218.8833,766.43,223.4935" style="stroke:#A80036;stroke-width:1.0;"/><text fill="#000000" font-family="sans-serif" font-size="13" lengthAdjust="spacingAndGlyphs" textLength="30" x="1130" y="165.0669">says</text><!--MD5=[db63f63d1dde73e9ed38631a79176a49]
link Rene to goodbye--><path d="M1087.24,122.225 C1077.13,139.33 1062.99,157.912 1045,169 C999.896,196.8017 871.45,212.9255 769.844,221.6315 " fill="none" id="Rene-to-goodbye" style="stroke:#A80036;stroke-width:1.0;"/><polygon fill="#A80036" points="764.722,222.0661,774.028,225.2906,769.7041,221.6432,773.3515,217.3193,764.722,222.0661" style="stroke:#A80036;stroke-width:1.0;"/><text fill="#000000" font-family="sans-serif" font-size="13" lengthAdjust="spacingAndGlyphs" textLength="30" x="1066" y="165.0669">says</text><!--MD5=[644a0aa15c78204cc8702eb030db7665]
link Frank to goodbye--><path d="M1011.79,105.872 C1006.33,111.507 1000.2,117.263 994,122 C959.389,148.446 948.764,153.652 908,169 C857.76,187.916 800.063,201.9148 750.533,211.7369 " fill="none" id="Frank-to-goodbye" style="stroke:#A80036;stroke-width:1.0;"/><polygon fill="#A80036" points="745.46,212.7341,755.0625,214.9233,750.3661,211.7698,753.5196,207.0735,745.46,212.7341" style="stroke:#A80036;stroke-width:1.0;"/><text fill="#000000" font-family="sans-serif" font-size="13" lengthAdjust="spacingAndGlyphs" textLength="30" x="949" y="165.0669">says</text><!--MD5=[644a0aa15c78204cc8702eb030db7665]
link Frank to goodbye--><path d="M1020.67,122.288 C1013.87,139.192 1003.45,157.593 988,169 C953.214,194.678 852.472,210.5573 767.153,219.7328 " fill="none" id="Frank-to-goodbye-1" style="stroke:#A80036;stroke-width:1.0;"/><polygon fill="#A80036" points="762.073,220.2732,771.4463,223.2967,767.0448,219.7432,770.5983,215.3418,762.073,220.2732" style="stroke:#A80036;stroke-width:1.0;"/><text fill="#000000" font-family="sans-serif" font-size="13" lengthAdjust="spacingAndGlyphs" textLength="30" x="1006" y="165.0669">says</text><!--MD5=[a7c4c016ed3720d98aa871a82b235603]
link Janina to goodbye--><path d="M934.907,106.437 C929.402,111.935 923.249,117.485 917,122 C861.756,161.908 789.991,189.161 732.425,206.3716 " fill="none" id="Janina-to-goodbye" style="stroke:#A80036;stroke-width:1.0;"/><polygon fill="#A80036" points="727.604,207.7994,737.3694,209.0787,732.3981,206.3794,735.0974,201.4081,727.604,207.7994" style="stroke:#A80036;stroke-width:1.0;"/><text fill="#000000" font-family="sans-serif" font-size="13" lengthAdjust="spacingAndGlyphs" textLength="30" x="869" y="165.0669">says</text><!--MD5=[73e5cbdd5fe8c098f32d0e922db6c3b3]
link Hartwig to goodbye--><path d="M844.031,108.316 C838.52,113.037 832.682,117.795 827,122 C786.313,152.112 736.389,179.851 697.376,199.7436 " fill="none" id="Hartwig-to-goodbye" style="stroke:#A80036;stroke-width:1.0;"/><polygon fill="#A80036" points="692.674,202.1303,702.5098,201.6241,697.1327,199.8675,698.8893,194.4903,692.674,202.1303" style="stroke:#A80036;stroke-width:1.0;"/><text fill="#000000" font-family="sans-serif" font-size="13" lengthAdjust="spacingAndGlyphs" textLength="30" x="783" y="165.0669">says</text><!--MD5=[c798c2a4aec0a6ca21e0c86c1213d9a9]
link Claus-Peter to goodbye--><path d="M736.221,122.419 C723.979,137.327 709.656,154.217 696,169 C687.651,178.038 678.323,187.473 669.457,196.162 " fill="none" id="Claus-Peter-to-goodbye" style="stroke:#A80036;stroke-width:1.0;"/><polygon fill="#A80036" points="665.69,199.8367,674.9252,196.4145,669.2688,196.3449,669.3384,190.6885,665.69,199.8367" style="stroke:#A80036;stroke-width:1.0;"/><text fill="#000000" font-family="sans-serif" font-size="13" lengthAdjust="spacingAndGlyphs" textLength="30" x="712" y="165.0669">says</text><!--MD5=[940c2c4b3e9a175da85c5c43da9a1942]
link Felix to goodbye--><path d="M663.745,122.161 C657.42,144.45 649.579,172.08 643.399,193.858 " fill="none" id="Felix-to-goodbye" style="stroke:#A80036;stroke-width:1.0;"/><polygon fill="#A80036" points="642.026,198.6935,648.33,191.1265,643.3904,193.8832,640.6336,188.9436,642.026,198.6935" style="stroke:#A80036;stroke-width:1.0;"/><text fill="#000000" font-family="sans-serif" font-size="13" lengthAdjust="spacingAndGlyphs" textLength="30" x="657" y="165.0669">says</text><!--MD5=[9026734ccdc3a0c933977b0de7bf7968]
link Stefan to goodbye--><path d="M591.148,122.316 C589.646,137.212 589.68,154.121 594,169 C596.588,177.913 600.898,186.771 605.73,194.873 " fill="none" id="Stefan-to-goodbye" style="stroke:#A80036;stroke-width:1.0;"/><polygon fill="#A80036" points="608.461,199.2913,607.1318,189.5326,605.8322,195.0381,600.3267,193.7386,608.461,199.2913" style="stroke:#A80036;stroke-width:1.0;"/><text fill="#000000" font-family="sans-serif" font-size="13" lengthAdjust="spacingAndGlyphs" textLength="30" x="595" y="165.0669">says</text><!--MD5=[6a15de97a5a27597fa8b9bf00aa319b9]
link Klaus to goodbye--><path d="M529.467,122.338 C534.086,137.898 540.972,155.263 551,169 C558.781,179.658 568.934,189.303 579.433,197.6254 " fill="none" id="Klaus-to-goodbye" style="stroke:#A80036;stroke-width:1.0;"/><polygon fill="#A80036" points="583.628,200.8693,578.9553,192.1995,579.6726,197.8107,574.0615,198.5281,583.628,200.8693" style="stroke:#A80036;stroke-width:1.0;"/><text fill="#000000" font-family="sans-serif" font-size="13" lengthAdjust="spacingAndGlyphs" textLength="30" x="552" y="165.0669">says</text><!--MD5=[c583d9217ae71fc31b76872054257442]
link Detlef to goodbye--><path d="M464.353,122.17 C474.08,138.25 486.911,156.043 502,169 C517.288,182.128 535.854,193.066 554.145,201.8986 " fill="none" id="Detlef-to-goodbye" style="stroke:#A80036;stroke-width:1.0;"/><polygon fill="#A80036" points="558.787,204.0988,552.3674,196.6296,554.2688,201.9573,548.9411,203.8587,558.787,204.0988" style="stroke:#A80036;stroke-width:1.0;"/><text fill="#000000" font-family="sans-serif" font-size="13" lengthAdjust="spacingAndGlyphs" textLength="30" x="503" y="165.0669">says</text><!--MD5=[c79ef75606a66b0cedcdf29c30c5884b]
link Shyam to goodbye--><path d="M386.258,113.805 C401.875,132.117 423.584,154.426 447,169 C472.794,185.055 503.236,197.3936 531.94,206.6549 " fill="none" id="Shyam-to-goodbye" style="stroke:#A80036;stroke-width:1.0;"/><polygon fill="#A80036" points="536.903,208.2314,529.5352,201.6957,532.1374,206.7185,527.1146,209.3206,536.903,208.2314" style="stroke:#A80036;stroke-width:1.0;"/><text fill="#000000" font-family="sans-serif" font-size="13" lengthAdjust="spacingAndGlyphs" textLength="30" x="448" y="165.0669">says</text><!--MD5=[f5c59e058414087efedfa6cb6b48a73f]
link MicNet to goodbye--><path d="M303.038,108.564 C323.493,128.262 354.141,154.334 386,169 C427.068,187.905 474.76,201.5223 517.222,211.0584 " fill="none" id="MicNet-to-goodbye" style="stroke:#A80036;stroke-width:1.0;"/><polygon fill="#A80036" points="522.108,212.1428,514.1895,206.2864,517.227,211.0586,512.4548,214.096,522.108,212.1428" style="stroke:#A80036;stroke-width:1.0;"/><text fill="#000000" font-family="sans-serif" font-size="13" lengthAdjust="spacingAndGlyphs" textLength="30" x="387" y="165.0669">says</text><!--MD5=[2cc34c692f3808a9497c4fbf3e7b4444]
link Arnold to goodbye--><path d="M217.831,107.351 C223.255,112.459 229.149,117.611 235,122 C268.602,147.208 277.632,154.346 317,169 C377.251,191.427 447.157,206.1166 505.876,215.4939 " fill="none" id="Arnold-to-goodbye" style="stroke:#A80036;stroke-width:1.0;"/><polygon fill="#A80036" points="511.161,216.3286,502.8952,210.9736,506.2222,215.5486,501.6472,218.8756,511.161,216.3286" style="stroke:#A80036;stroke-width:1.0;"/><text fill="#000000" font-family="sans-serif" font-size="13" lengthAdjust="spacingAndGlyphs" textLength="30" x="318" y="165.0669">says</text><!--MD5=[ca45d86a6a0102107b848520db018317]
link Jens to goodbye--><path d="M135.555,103.57 C140.605,109.97 146.615,116.703 153,122 C186.822,150.063 198.356,154.956 240,169 C323.082,197.0193 420.419,212.3732 497.437,220.7327 " fill="none" id="Jens-to-goodbye" style="stroke:#A80036;stroke-width:1.0;"/><polygon fill="#A80036" points="502.48,221.2733,493.9576,216.3369,497.5085,220.7404,493.105,224.2914,502.48,221.2733" style="stroke:#A80036;stroke-width:1.0;"/><text fill="#000000" font-family="sans-serif" font-size="13" lengthAdjust="spacingAndGlyphs" textLength="30" x="241" y="165.0669">says</text><!--MD5=[4c78a10d2764931ac6c026d76a95cbfd]
link Mario to goodbye--><path d="M71.8031,105.739 C91.1378,126.561 122.604,155.792 157,169 C217.409,192.197 379.727,209.8838 498.062,220.2083 " fill="none" id="Mario-to-goodbye" style="stroke:#A80036;stroke-width:1.0;"/><polygon fill="#A80036" points="503.31,220.6639,494.6901,215.8998,498.3288,220.231,493.9975,223.8697,503.31,220.6639" style="stroke:#A80036;stroke-width:1.0;"/><text fill="#000000" font-family="sans-serif" font-size="13" lengthAdjust="spacingAndGlyphs" textLength="30" x="158" y="165.0669">says</text><!--MD5=[f1780fb10d65f08ecfa125297336222c]
@startuml
folder "Glückwunschkarte" {
    usecase goodbye [
        Lieber Tom,
        wir wünschen dir viel Erfolg und
        alles Gute für die Zukunft!
    ]

    :Daniel: - -> goodbye: says
    :Rene: - -> goodbye: says
    :Frank: - -> goodbye: says
    :Janina: - -> goodbye: says
    :Hartwig: - -> goodbye: says
    :Claus-Peter: - -> goodbye: says
    :Felix: - -> goodbye: says
    :Stefan: - -> goodbye: says
    :Klaus: - -> goodbye: says
    :Detlef: - -> goodbye: says
    :Shyam: - -> goodbye: says
    :MicNet: - -> goodbye: says
    :Frank: - -> goodbye: says
    :Arnold: - -> goodbye: says 
    :Jens: - -> goodbye: says
    :Mario: - -> goodbye: says
   
    
}
@enduml

PlantUML version 1.2020.22(Sun Dec 06 09:36:27 UTC 2020)
(GPL source distribution)
Java Runtime: Java(TM) SE Runtime Environment
JVM: Java HotSpot(TM) 64-Bit Server VM
Default Encoding: UTF-8
Language: en
Country: US
--></g></svg>