<?xml version="1.0" encoding="UTF-8" standalone="no"?><svg xmlns="http://www.w3.org/2000/svg" xmlns:xlink="http://www.w3.org/1999/xlink" contentScriptType="application/ecmascript" contentStyleType="text/css" height="287px" preserveAspectRatio="none" style="width:849px;height:287px;" version="1.1" viewBox="0 0 849 287" width="849px" zoomAndPan="magnify"><defs><filter height="300%" id="fo2aobx14sjpv" width="300%" x="-1" y="-1"><feGaussianBlur result="blurOut" stdDeviation="2.0"/><feColorMatrix in="blurOut" result="blurOut2" type="matrix" values="0 0 0 0 0 0 0 0 0 0 0 0 0 0 0 0 0 0 .4 0"/><feOffset dx="4.0" dy="4.0" in="blurOut2" result="blurOut3"/><feBlend in="SourceGraphic" in2="blurOut3" mode="normal"/></filter></defs><g><!--MD5=[66092f187a140d509edf35c12b1eec33]
cluster Glückwunschkarte--><polygon fill="#FFFFFF" filter="url(#fo2aobx14sjpv)" points="16,6,171,6,178,28.2969,832,28.2969,832,280,16,280,16,6" style="stroke:#000000;stroke-width:1.5;"/><line style="stroke:#000000;stroke-width:1.5;" x1="16" x2="178" y1="28.2969" y2="28.2969"/><text fill="#000000" font-family="sans-serif" font-size="14" font-weight="bold" lengthAdjust="spacingAndGlyphs" textLength="149" x="20" y="20.9951">Glückwunschkarte</text><ellipse cx="423.9484" cy="231.3449" fill="#FEFECE" filter="url(#fo2aobx14sjpv)" rx="137.4484" ry="32.3449" style="stroke:#A80036;stroke-width:1.5;"/><text fill="#000000" font-family="sans-serif" font-size="14" lengthAdjust="spacingAndGlyphs" textLength="86" x="380.9484" y="216.3382">Lieber Tom,</text><text fill="#000000" font-family="sans-serif" font-size="14" lengthAdjust="spacingAndGlyphs" textLength="224" x="311.9484" y="232.635">wir wünschen dir viel Erfolg und</text><text fill="#000000" font-family="sans-serif" font-size="14" lengthAdjust="spacingAndGlyphs" textLength="187" x="330.4484" y="248.9319">alles Gute für die Zukunft!</text><!--MD5=[c1b96b8b8683df5ba748b0cb12cbbe3c]
entity Daniel--><ellipse cx="793" cy="50.5" fill="#FEFECE" filter="url(#fo2aobx14sjpv)" rx="8" ry="8" style="stroke:#A80036;stroke-width:1.5;"/><path d="M793,58.5 L793,85.5 M780,66.5 L806,66.5 M793,85.5 L780,100.5 M793,85.5 L806,100.5 " fill="none" filter="url(#fo2aobx14sjpv)" style="stroke:#A80036;stroke-width:1.5;"/><text fill="#000000" font-family="sans-serif" font-size="14" lengthAdjust="spacingAndGlyphs" textLength="45" x="770.5" y="118.9951">Daniel</text><!--MD5=[a9423008d16f12aa17a26e16f8cb43d5]
entity Rene--><ellipse cx="717" cy="50.5" fill="#FEFECE" filter="url(#fo2aobx14sjpv)" rx="8" ry="8" style="stroke:#A80036;stroke-width:1.5;"/><path d="M717,58.5 L717,85.5 M704,66.5 L730,66.5 M717,85.5 L704,100.5 M717,85.5 L730,100.5 " fill="none" filter="url(#fo2aobx14sjpv)" style="stroke:#A80036;stroke-width:1.5;"/><text fill="#000000" font-family="sans-serif" font-size="14" lengthAdjust="spacingAndGlyphs" textLength="37" x="698.5" y="118.9951">Rene</text><!--MD5=[fa3845fac8be698dd000fa68d5a2e3be]
entity Frank--><ellipse cx="643" cy="50.5" fill="#FEFECE" filter="url(#fo2aobx14sjpv)" rx="8" ry="8" style="stroke:#A80036;stroke-width:1.5;"/><path d="M643,58.5 L643,85.5 M630,66.5 L656,66.5 M643,85.5 L630,100.5 M643,85.5 L656,100.5 " fill="none" filter="url(#fo2aobx14sjpv)" style="stroke:#A80036;stroke-width:1.5;"/><text fill="#000000" font-family="sans-serif" font-size="14" lengthAdjust="spacingAndGlyphs" textLength="40" x="623" y="118.9951">Frank</text><!--MD5=[0630ea7ba86524916c58551553813136]
entity Janina--><ellipse cx="567" cy="50.5" fill="#FEFECE" filter="url(#fo2aobx14sjpv)" rx="8" ry="8" style="stroke:#A80036;stroke-width:1.5;"/><path d="M567,58.5 L567,85.5 M554,66.5 L580,66.5 M567,85.5 L554,100.5 M567,85.5 L580,100.5 " fill="none" filter="url(#fo2aobx14sjpv)" style="stroke:#A80036;stroke-width:1.5;"/><text fill="#000000" font-family="sans-serif" font-size="14" lengthAdjust="spacingAndGlyphs" textLength="42" x="546" y="118.9951">Janina</text><!--MD5=[256e55fea0fa3198e7872be6d62206e7]
entity Hartwig--><ellipse cx="483" cy="50.5" fill="#FEFECE" filter="url(#fo2aobx14sjpv)" rx="8" ry="8" style="stroke:#A80036;stroke-width:1.5;"/><path d="M483,58.5 L483,85.5 M470,66.5 L496,66.5 M483,85.5 L470,100.5 M483,85.5 L496,100.5 " fill="none" filter="url(#fo2aobx14sjpv)" style="stroke:#A80036;stroke-width:1.5;"/><text fill="#000000" font-family="sans-serif" font-size="14" lengthAdjust="spacingAndGlyphs" textLength="55" x="455.5" y="118.9951">Hartwig</text><!--MD5=[9b95b9c18cb1e472571f5f163adcbf08]
entity Claus-Peter--><ellipse cx="379" cy="50.5" fill="#FEFECE" filter="url(#fo2aobx14sjpv)" rx="8" ry="8" style="stroke:#A80036;stroke-width:1.5;"/><path d="M379,58.5 L379,85.5 M366,66.5 L392,66.5 M379,85.5 L366,100.5 M379,85.5 L392,100.5 " fill="none" filter="url(#fo2aobx14sjpv)" style="stroke:#A80036;stroke-width:1.5;"/><text fill="#000000" font-family="sans-serif" font-size="14" lengthAdjust="spacingAndGlyphs" textLength="83" x="337.5" y="118.9951">Claus-Peter</text><!--MD5=[b1b6f11ea69a5e1a18d70aafc16bcf68]
entity Felix--><ellipse cx="286" cy="50.5" fill="#FEFECE" filter="url(#fo2aobx14sjpv)" rx="8" ry="8" style="stroke:#A80036;stroke-width:1.5;"/><path d="M286,58.5 L286,85.5 M273,66.5 L299,66.5 M286,85.5 L273,100.5 M286,85.5 L299,100.5 " fill="none" filter="url(#fo2aobx14sjpv)" style="stroke:#A80036;stroke-width:1.5;"/><text fill="#000000" font-family="sans-serif" font-size="14" lengthAdjust="spacingAndGlyphs" textLength="33" x="269.5" y="118.9951">Felix</text><!--MD5=[0d988fe91444ec70c41456c736a04fce]
entity Stefan--><ellipse cx="210" cy="50.5" fill="#FEFECE" filter="url(#fo2aobx14sjpv)" rx="8" ry="8" style="stroke:#A80036;stroke-width:1.5;"/><path d="M210,58.5 L210,85.5 M197,66.5 L223,66.5 M210,85.5 L197,100.5 M210,85.5 L223,100.5 " fill="none" filter="url(#fo2aobx14sjpv)" style="stroke:#A80036;stroke-width:1.5;"/><text fill="#000000" font-family="sans-serif" font-size="14" lengthAdjust="spacingAndGlyphs" textLength="48" x="186" y="118.9951">Stefan</text><!--MD5=[dd3cab79017c4025ff97f2ffe66ce617]
entity Klaus--><ellipse cx="132" cy="50.5" fill="#FEFECE" filter="url(#fo2aobx14sjpv)" rx="8" ry="8" style="stroke:#A80036;stroke-width:1.5;"/><path d="M132,58.5 L132,85.5 M119,66.5 L145,66.5 M132,85.5 L119,100.5 M132,85.5 L145,100.5 " fill="none" filter="url(#fo2aobx14sjpv)" style="stroke:#A80036;stroke-width:1.5;"/><text fill="#000000" font-family="sans-serif" font-size="14" lengthAdjust="spacingAndGlyphs" textLength="37" x="113.5" y="118.9951">Klaus</text><!--MD5=[52f72cad88ef2c18c4ef0e5aee04cdc6]
entity Detlef--><ellipse cx="55" cy="50.5" fill="#FEFECE" filter="url(#fo2aobx14sjpv)" rx="8" ry="8" style="stroke:#A80036;stroke-width:1.5;"/><path d="M55,58.5 L55,85.5 M42,66.5 L68,66.5 M55,85.5 L42,100.5 M55,85.5 L68,100.5 " fill="none" filter="url(#fo2aobx14sjpv)" style="stroke:#A80036;stroke-width:1.5;"/><text fill="#000000" font-family="sans-serif" font-size="14" lengthAdjust="spacingAndGlyphs" textLength="46" x="32" y="118.9951">Detlef</text><!--MD5=[134f007453776ecca3a6acf8d78233db]
link Daniel to goodbye--><path d="M770.285,106.396 C749.728,126.473 717.602,154.191 684,169 C639.464,188.628 587.757,202.4983 542.24,212.0326 " fill="none" id="Daniel-to-goodbye" style="stroke:#A80036;stroke-width:1.0;"/><polygon fill="#A80036" points="537.29,213.0576,546.9143,215.1488,542.186,212.0433,545.2915,207.3151,537.29,213.0576" style="stroke:#A80036;stroke-width:1.0;"/><text fill="#000000" font-family="sans-serif" font-size="13" lengthAdjust="spacingAndGlyphs" textLength="30" x="715" y="165.0669">says</text><!--MD5=[db63f63d1dde73e9ed38631a79176a49]
link Rene to goodbye--><path d="M698.153,104.175 C692.542,110.189 686.225,116.557 680,122 C652.89,145.703 646.172,152.822 614,169 C584.745,183.711 551.215,195.938 520.546,205.512 " fill="none" id="Rene-to-goodbye" style="stroke:#A80036;stroke-width:1.0;"/><polygon fill="#A80036" points="515.649,207.0257,525.429,208.1883,520.4258,205.5486,523.0656,200.5454,515.649,207.0257" style="stroke:#A80036;stroke-width:1.0;"/><text fill="#000000" font-family="sans-serif" font-size="13" lengthAdjust="spacingAndGlyphs" textLength="30" x="645" y="165.0669">says</text><!--MD5=[644a0aa15c78204cc8702eb030db7665]
link Frank to goodbye--><path d="M622.828,104.16 C617.163,110.051 610.929,116.359 605,122 C581.948,143.931 577.551,151.468 551,169 C533.379,180.635 513.226,191.407 494.244,200.5787 " fill="none" id="Frank-to-goodbye" style="stroke:#A80036;stroke-width:1.0;"/><polygon fill="#A80036" points="489.446,202.8754,499.2909,202.5956,493.9555,200.7157,495.8354,195.3803,489.446,202.8754" style="stroke:#A80036;stroke-width:1.0;"/><text fill="#000000" font-family="sans-serif" font-size="13" lengthAdjust="spacingAndGlyphs" textLength="30" x="575" y="165.0669">says</text><!--MD5=[a7c4c016ed3720d98aa871a82b235603]
link Janina to goodbye--><path d="M545.802,110.835 C532.271,128.264 513.955,150.689 496,169 C486.753,178.43 476.22,187.997 466.118,196.688 " fill="none" id="Janina-to-goodbye" style="stroke:#A80036;stroke-width:1.0;"/><polygon fill="#A80036" points="462.121,200.1001,471.5635,197.3002,465.9243,196.8543,466.3702,191.215,462.121,200.1001" style="stroke:#A80036;stroke-width:1.0;"/><text fill="#000000" font-family="sans-serif" font-size="13" lengthAdjust="spacingAndGlyphs" textLength="30" x="512" y="165.0669">says</text><!--MD5=[73e5cbdd5fe8c098f32d0e922db6c3b3]
link Hartwig to goodbye--><path d="M467.189,122.161 C458.304,144.45 447.289,172.08 438.607,193.858 " fill="none" id="Hartwig-to-goodbye" style="stroke:#A80036;stroke-width:1.0;"/><polygon fill="#A80036" points="436.68,198.6935,443.7284,191.8145,438.5315,194.049,436.2971,188.8521,436.68,198.6935" style="stroke:#A80036;stroke-width:1.0;"/><text fill="#000000" font-family="sans-serif" font-size="13" lengthAdjust="spacingAndGlyphs" textLength="30" x="457" y="165.0669">says</text><!--MD5=[c798c2a4aec0a6ca21e0c86c1213d9a9]
link Claus-Peter to goodbye--><path d="M382.844,122.288 C384.955,137.182 388.165,154.095 393,169 C395.77,177.541 399.583,186.363 403.588,194.566 " fill="none" id="Claus-Peter-to-goodbye" style="stroke:#A80036;stroke-width:1.0;"/><polygon fill="#A80036" points="405.827,199.0539,405.3898,189.2147,403.5955,194.5795,398.2308,192.7851,405.827,199.0539" style="stroke:#A80036;stroke-width:1.0;"/><text fill="#000000" font-family="sans-serif" font-size="13" lengthAdjust="spacingAndGlyphs" textLength="30" x="394" y="165.0669">says</text><!--MD5=[940c2c4b3e9a175da85c5c43da9a1942]
link Felix to goodbye--><path d="M302.597,108.81 C314.466,126.679 331.398,150.359 349,169 C358.185,178.728 368.893,188.341 379.294,196.9741 " fill="none" id="Felix-to-goodbye" style="stroke:#A80036;stroke-width:1.0;"/><polygon fill="#A80036" points="383.416,200.3582,378.9989,191.5554,379.5518,197.1852,373.922,197.7381,383.416,200.3582" style="stroke:#A80036;stroke-width:1.0;"/><text fill="#000000" font-family="sans-serif" font-size="13" lengthAdjust="spacingAndGlyphs" textLength="30" x="350" y="165.0669">says</text><!--MD5=[9026734ccdc3a0c933977b0de7bf7968]
link Stefan to goodbye--><path d="M234.222,111.507 C250.395,129.627 272.874,152.556 296,169 C312.948,181.051 332.625,191.838 351.391,200.8844 " fill="none" id="Stefan-to-goodbye" style="stroke:#A80036;stroke-width:1.0;"/><polygon fill="#A80036" points="356.141,203.1467,349.7356,195.6653,351.6269,200.9966,346.2955,202.8879,356.141,203.1467" style="stroke:#A80036;stroke-width:1.0;"/><text fill="#000000" font-family="sans-serif" font-size="13" lengthAdjust="spacingAndGlyphs" textLength="30" x="297" y="165.0669">says</text><!--MD5=[6a15de97a5a27597fa8b9bf00aa319b9]
link Klaus to goodbye--><path d="M150.593,104.675 C155.958,110.568 161.992,116.749 168,122 C195.663,146.177 203.088,152.675 236,169 C265.202,183.485 298.595,195.684 329.057,205.2998 " fill="none" id="Klaus-to-goodbye" style="stroke:#A80036;stroke-width:1.0;"/><polygon fill="#A80036" points="333.92,206.8209,326.5248,200.3162,329.1481,205.3281,324.1362,207.9513,333.92,206.8209" style="stroke:#A80036;stroke-width:1.0;"/><text fill="#000000" font-family="sans-serif" font-size="13" lengthAdjust="spacingAndGlyphs" textLength="30" x="237" y="165.0669">says</text><!--MD5=[c583d9217ae71fc31b76872054257442]
link Detlef to goodbye--><path d="M78.2304,106.355 C99.2282,126.405 131.982,154.107 166,169 C210.158,188.332 261.344,202.137 306.427,211.703 " fill="none" id="Detlef-to-goodbye" style="stroke:#A80036;stroke-width:1.0;"/><polygon fill="#A80036" points="311.33,212.7319,303.3436,206.9684,306.4366,211.7048,301.7002,214.7978,311.33,212.7319" style="stroke:#A80036;stroke-width:1.0;"/><text fill="#000000" font-family="sans-serif" font-size="13" lengthAdjust="spacingAndGlyphs" textLength="30" x="167" y="165.0669">says</text><!--MD5=[2e168a84cfb706f86a51550177783909]
@startuml
folder "Glückwunschkarte" {
    usecase goodbye [
        Lieber Tom,
        wir wünschen dir viel Erfolg und
        alles Gute für die Zukunft!
    ]

    :Daniel: - -> goodbye: says
    :Rene: - -> goodbye: says
    :Frank: - -> goodbye: says
    :Janina: - -> goodbye: says
    :Hartwig: - -> goodbye: says
    :Claus-Peter: - -> goodbye: says
    :Felix: - -> goodbye: says
    :Stefan: - -> goodbye: says
    :Klaus: - -> goodbye: says
    :Detlef: - -> goodbye: says
    
}
@enduml

PlantUML version 1.2020.22(Sun Dec 06 09:36:27 UTC 2020)
(GPL source distribution)
Java Runtime: Java(TM) SE Runtime Environment
JVM: Java HotSpot(TM) 64-Bit Server VM
Default Encoding: UTF-8
Language: en
Country: US
--></g></svg>