<?xml version="1.0" encoding="UTF-8" standalone="no"?><svg xmlns="http://www.w3.org/2000/svg" xmlns:xlink="http://www.w3.org/1999/xlink" contentScriptType="application/ecmascript" contentStyleType="text/css" height="287px" preserveAspectRatio="none" style="width:932px;height:287px;" version="1.1" viewBox="0 0 932 287" width="932px" zoomAndPan="magnify"><defs><filter height="300%" id="flqxx7xeo34o6" width="300%" x="-1" y="-1"><feGaussianBlur result="blurOut" stdDeviation="2.0"/><feColorMatrix in="blurOut" result="blurOut2" type="matrix" values="0 0 0 0 0 0 0 0 0 0 0 0 0 0 0 0 0 0 .4 0"/><feOffset dx="4.0" dy="4.0" in="blurOut2" result="blurOut3"/><feBlend in="SourceGraphic" in2="blurOut3" mode="normal"/></filter></defs><g><!--MD5=[66092f187a140d509edf35c12b1eec33]
cluster Glückwunschkarte--><polygon fill="#FFFFFF" filter="url(#flqxx7xeo34o6)" points="16,6,171,6,178,28.2969,915,28.2969,915,280,16,280,16,6" style="stroke:#000000;stroke-width:1.5;"/><line style="stroke:#000000;stroke-width:1.5;" x1="16" x2="178" y1="28.2969" y2="28.2969"/><text fill="#000000" font-family="sans-serif" font-size="14" font-weight="bold" lengthAdjust="spacingAndGlyphs" textLength="149" x="20" y="20.9951">Glückwunschkarte</text><ellipse cx="461.9484" cy="231.3449" fill="#FEFECE" filter="url(#flqxx7xeo34o6)" rx="137.4484" ry="32.3449" style="stroke:#A80036;stroke-width:1.5;"/><text fill="#000000" font-family="sans-serif" font-size="14" lengthAdjust="spacingAndGlyphs" textLength="86" x="418.9484" y="216.3382">Lieber Tom,</text><text fill="#000000" font-family="sans-serif" font-size="14" lengthAdjust="spacingAndGlyphs" textLength="224" x="349.9484" y="232.635">wir wünschen dir viel Erfolg und</text><text fill="#000000" font-family="sans-serif" font-size="14" lengthAdjust="spacingAndGlyphs" textLength="187" x="368.4484" y="248.9319">alles Gute für die Zukunft!</text><!--MD5=[c1b96b8b8683df5ba748b0cb12cbbe3c]
entity Daniel--><ellipse cx="876" cy="50.5" fill="#FEFECE" filter="url(#flqxx7xeo34o6)" rx="8" ry="8" style="stroke:#A80036;stroke-width:1.5;"/><path d="M876,58.5 L876,85.5 M863,66.5 L889,66.5 M876,85.5 L863,100.5 M876,85.5 L889,100.5 " fill="none" filter="url(#flqxx7xeo34o6)" style="stroke:#A80036;stroke-width:1.5;"/><text fill="#000000" font-family="sans-serif" font-size="14" lengthAdjust="spacingAndGlyphs" textLength="45" x="853.5" y="118.9951">Daniel</text><!--MD5=[a9423008d16f12aa17a26e16f8cb43d5]
entity Rene--><ellipse cx="800" cy="50.5" fill="#FEFECE" filter="url(#flqxx7xeo34o6)" rx="8" ry="8" style="stroke:#A80036;stroke-width:1.5;"/><path d="M800,58.5 L800,85.5 M787,66.5 L813,66.5 M800,85.5 L787,100.5 M800,85.5 L813,100.5 " fill="none" filter="url(#flqxx7xeo34o6)" style="stroke:#A80036;stroke-width:1.5;"/><text fill="#000000" font-family="sans-serif" font-size="14" lengthAdjust="spacingAndGlyphs" textLength="37" x="781.5" y="118.9951">Rene</text><!--MD5=[fa3845fac8be698dd000fa68d5a2e3be]
entity Frank--><ellipse cx="726" cy="50.5" fill="#FEFECE" filter="url(#flqxx7xeo34o6)" rx="8" ry="8" style="stroke:#A80036;stroke-width:1.5;"/><path d="M726,58.5 L726,85.5 M713,66.5 L739,66.5 M726,85.5 L713,100.5 M726,85.5 L739,100.5 " fill="none" filter="url(#flqxx7xeo34o6)" style="stroke:#A80036;stroke-width:1.5;"/><text fill="#000000" font-family="sans-serif" font-size="14" lengthAdjust="spacingAndGlyphs" textLength="40" x="706" y="118.9951">Frank</text><!--MD5=[0630ea7ba86524916c58551553813136]
entity Janina--><ellipse cx="650" cy="50.5" fill="#FEFECE" filter="url(#flqxx7xeo34o6)" rx="8" ry="8" style="stroke:#A80036;stroke-width:1.5;"/><path d="M650,58.5 L650,85.5 M637,66.5 L663,66.5 M650,85.5 L637,100.5 M650,85.5 L663,100.5 " fill="none" filter="url(#flqxx7xeo34o6)" style="stroke:#A80036;stroke-width:1.5;"/><text fill="#000000" font-family="sans-serif" font-size="14" lengthAdjust="spacingAndGlyphs" textLength="42" x="629" y="118.9951">Janina</text><!--MD5=[256e55fea0fa3198e7872be6d62206e7]
entity Hartwig--><ellipse cx="566" cy="50.5" fill="#FEFECE" filter="url(#flqxx7xeo34o6)" rx="8" ry="8" style="stroke:#A80036;stroke-width:1.5;"/><path d="M566,58.5 L566,85.5 M553,66.5 L579,66.5 M566,85.5 L553,100.5 M566,85.5 L579,100.5 " fill="none" filter="url(#flqxx7xeo34o6)" style="stroke:#A80036;stroke-width:1.5;"/><text fill="#000000" font-family="sans-serif" font-size="14" lengthAdjust="spacingAndGlyphs" textLength="55" x="538.5" y="118.9951">Hartwig</text><!--MD5=[9b95b9c18cb1e472571f5f163adcbf08]
entity Claus-Peter--><ellipse cx="462" cy="50.5" fill="#FEFECE" filter="url(#flqxx7xeo34o6)" rx="8" ry="8" style="stroke:#A80036;stroke-width:1.5;"/><path d="M462,58.5 L462,85.5 M449,66.5 L475,66.5 M462,85.5 L449,100.5 M462,85.5 L475,100.5 " fill="none" filter="url(#flqxx7xeo34o6)" style="stroke:#A80036;stroke-width:1.5;"/><text fill="#000000" font-family="sans-serif" font-size="14" lengthAdjust="spacingAndGlyphs" textLength="83" x="420.5" y="118.9951">Claus-Peter</text><!--MD5=[b1b6f11ea69a5e1a18d70aafc16bcf68]
entity Felix--><ellipse cx="369" cy="50.5" fill="#FEFECE" filter="url(#flqxx7xeo34o6)" rx="8" ry="8" style="stroke:#A80036;stroke-width:1.5;"/><path d="M369,58.5 L369,85.5 M356,66.5 L382,66.5 M369,85.5 L356,100.5 M369,85.5 L382,100.5 " fill="none" filter="url(#flqxx7xeo34o6)" style="stroke:#A80036;stroke-width:1.5;"/><text fill="#000000" font-family="sans-serif" font-size="14" lengthAdjust="spacingAndGlyphs" textLength="33" x="352.5" y="118.9951">Felix</text><!--MD5=[0d988fe91444ec70c41456c736a04fce]
entity Stefan--><ellipse cx="293" cy="50.5" fill="#FEFECE" filter="url(#flqxx7xeo34o6)" rx="8" ry="8" style="stroke:#A80036;stroke-width:1.5;"/><path d="M293,58.5 L293,85.5 M280,66.5 L306,66.5 M293,85.5 L280,100.5 M293,85.5 L306,100.5 " fill="none" filter="url(#flqxx7xeo34o6)" style="stroke:#A80036;stroke-width:1.5;"/><text fill="#000000" font-family="sans-serif" font-size="14" lengthAdjust="spacingAndGlyphs" textLength="48" x="269" y="118.9951">Stefan</text><!--MD5=[dd3cab79017c4025ff97f2ffe66ce617]
entity Klaus--><ellipse cx="215" cy="50.5" fill="#FEFECE" filter="url(#flqxx7xeo34o6)" rx="8" ry="8" style="stroke:#A80036;stroke-width:1.5;"/><path d="M215,58.5 L215,85.5 M202,66.5 L228,66.5 M215,85.5 L202,100.5 M215,85.5 L228,100.5 " fill="none" filter="url(#flqxx7xeo34o6)" style="stroke:#A80036;stroke-width:1.5;"/><text fill="#000000" font-family="sans-serif" font-size="14" lengthAdjust="spacingAndGlyphs" textLength="37" x="196.5" y="118.9951">Klaus</text><!--MD5=[52f72cad88ef2c18c4ef0e5aee04cdc6]
entity Detlef--><ellipse cx="138" cy="50.5" fill="#FEFECE" filter="url(#flqxx7xeo34o6)" rx="8" ry="8" style="stroke:#A80036;stroke-width:1.5;"/><path d="M138,58.5 L138,85.5 M125,66.5 L151,66.5 M138,85.5 L125,100.5 M138,85.5 L151,100.5 " fill="none" filter="url(#flqxx7xeo34o6)" style="stroke:#A80036;stroke-width:1.5;"/><text fill="#000000" font-family="sans-serif" font-size="14" lengthAdjust="spacingAndGlyphs" textLength="46" x="115" y="118.9951">Detlef</text><!--MD5=[adf99b581cb8d84a603ed1e57d0cd319]
entity Shyam--><ellipse cx="56" cy="50.5" fill="#FEFECE" filter="url(#flqxx7xeo34o6)" rx="8" ry="8" style="stroke:#A80036;stroke-width:1.5;"/><path d="M56,58.5 L56,85.5 M43,66.5 L69,66.5 M56,85.5 L43,100.5 M56,85.5 L69,100.5 " fill="none" filter="url(#flqxx7xeo34o6)" style="stroke:#A80036;stroke-width:1.5;"/><text fill="#000000" font-family="sans-serif" font-size="14" lengthAdjust="spacingAndGlyphs" textLength="48" x="32" y="118.9951">Shyam</text><!--MD5=[134f007453776ecca3a6acf8d78233db]
link Daniel to goodbye--><path d="M853.471,106.302 C847.954,111.687 841.925,117.221 836,122 C806.255,145.991 799.351,154.485 764,169 C708.746,191.687 644.256,206.2824 589.091,215.5291 " fill="none" id="Daniel-to-goodbye" style="stroke:#A80036;stroke-width:1.0;"/><polygon fill="#A80036" points="584.122,216.3518,593.6547,218.8272,589.0548,215.5347,592.3473,210.9347,584.122,216.3518" style="stroke:#A80036;stroke-width:1.0;"/><text fill="#000000" font-family="sans-serif" font-size="13" lengthAdjust="spacingAndGlyphs" textLength="30" x="798" y="165.0669">says</text><!--MD5=[db63f63d1dde73e9ed38631a79176a49]
link Rene to goodbye--><path d="M781.336,104.39 C775.729,110.408 769.367,116.724 763,122 C733,146.86 724.651,153.283 689,169 C651.278,185.63 608,198.7083 569.418,208.4501 " fill="none" id="Rene-to-goodbye" style="stroke:#A80036;stroke-width:1.0;"/><polygon fill="#A80036" points="564.25,209.7422,573.9515,211.4396,569.1007,208.5294,572.0109,203.6785,564.25,209.7422" style="stroke:#A80036;stroke-width:1.0;"/><text fill="#000000" font-family="sans-serif" font-size="13" lengthAdjust="spacingAndGlyphs" textLength="30" x="725" y="165.0669">says</text><!--MD5=[644a0aa15c78204cc8702eb030db7665]
link Frank to goodbye--><path d="M705.835,105.02 C700.273,110.789 694.089,116.822 688,122 C660.014,145.801 652.45,151.775 620,169 C596.113,181.679 569.021,193.179 544.101,202.7126 " fill="none" id="Frank-to-goodbye" style="stroke:#A80036;stroke-width:1.0;"/><polygon fill="#A80036" points="539.148,204.5929,548.9817,205.1388,543.8226,202.8186,546.1428,197.6595,539.148,204.5929" style="stroke:#A80036;stroke-width:1.0;"/><text fill="#000000" font-family="sans-serif" font-size="13" lengthAdjust="spacingAndGlyphs" textLength="30" x="650" y="165.0669">says</text><!--MD5=[a7c4c016ed3720d98aa871a82b235603]
link Janina to goodbye--><path d="M628.798,104.491 C623.094,110.264 616.875,116.431 611,122 C588.15,143.658 583.109,150.006 558,169 C544.696,179.064 529.746,189.167 515.677,198.1932 " fill="none" id="Janina-to-goodbye" style="stroke:#A80036;stroke-width:1.0;"/><polygon fill="#A80036" points="511.342,200.9585,521.081,199.4914,515.5576,198.2698,516.7791,192.7464,511.342,200.9585" style="stroke:#A80036;stroke-width:1.0;"/><text fill="#000000" font-family="sans-serif" font-size="13" lengthAdjust="spacingAndGlyphs" textLength="30" x="581" y="165.0669">says</text><!--MD5=[73e5cbdd5fe8c098f32d0e922db6c3b3]
link Hartwig to goodbye--><path d="M538.403,121.773 C522.494,144.413 502.643,172.662 487.164,194.69 " fill="none" id="Hartwig-to-goodbye" style="stroke:#A80036;stroke-width:1.0;"/><polygon fill="#A80036" points="484.128,199.0097,492.5746,193.9447,487.0022,194.9184,486.0285,189.346,484.128,199.0097" style="stroke:#A80036;stroke-width:1.0;"/><text fill="#000000" font-family="sans-serif" font-size="13" lengthAdjust="spacingAndGlyphs" textLength="30" x="519" y="165.0669">says</text><!--MD5=[c798c2a4aec0a6ca21e0c86c1213d9a9]
link Claus-Peter to goodbye--><path d="M462,122.161 C462,144.357 462,171.848 462,193.583 " fill="none" id="Claus-Peter-to-goodbye" style="stroke:#A80036;stroke-width:1.0;"/><polygon fill="#A80036" points="462,198.6935,466,189.6935,462,193.6935,458,189.6935,462,198.6935" style="stroke:#A80036;stroke-width:1.0;"/><text fill="#000000" font-family="sans-serif" font-size="13" lengthAdjust="spacingAndGlyphs" textLength="30" x="463" y="165.0669">says</text><!--MD5=[940c2c4b3e9a175da85c5c43da9a1942]
link Felix to goodbye--><path d="M385.522,109.887 C395.885,126.959 409.588,149.343 422,169 C427.278,177.36 433.034,186.305 438.491,194.711 " fill="none" id="Felix-to-goodbye" style="stroke:#A80036;stroke-width:1.0;"/><polygon fill="#A80036" points="441.487,199.3183,439.936,189.5923,438.7621,195.126,433.2284,193.9522,441.487,199.3183" style="stroke:#A80036;stroke-width:1.0;"/><text fill="#000000" font-family="sans-serif" font-size="13" lengthAdjust="spacingAndGlyphs" textLength="30" x="423" y="165.0669">says</text><!--MD5=[9026734ccdc3a0c933977b0de7bf7968]
link Stefan to goodbye--><path d="M317.066,112.138 C331.977,129.629 352.037,151.665 372,169 C383.682,179.145 397.082,189.082 409.911,197.9105 " fill="none" id="Stefan-to-goodbye" style="stroke:#A80036;stroke-width:1.0;"/><polygon fill="#A80036" points="414.237,200.8606,409.0552,192.4851,410.1062,198.0435,404.5478,199.0944,414.237,200.8606" style="stroke:#A80036;stroke-width:1.0;"/><text fill="#000000" font-family="sans-serif" font-size="13" lengthAdjust="spacingAndGlyphs" textLength="30" x="373" y="165.0669">says</text><!--MD5=[6a15de97a5a27597fa8b9bf00aa319b9]
link Klaus to goodbye--><path d="M233.667,104.591 C239.032,110.484 245.048,116.685 251,122 C277.592,145.744 284.928,151.523 316,169 C337.597,181.148 362.075,192.362 384.732,201.7953 " fill="none" id="Klaus-to-goodbye" style="stroke:#A80036;stroke-width:1.0;"/><polygon fill="#A80036" points="389.537,203.7809,382.7456,196.6481,384.9157,201.8722,379.6916,204.0423,389.537,203.7809" style="stroke:#A80036;stroke-width:1.0;"/><text fill="#000000" font-family="sans-serif" font-size="13" lengthAdjust="spacingAndGlyphs" textLength="30" x="317" y="165.0669">says</text><!--MD5=[c583d9217ae71fc31b76872054257442]
link Detlef to goodbye--><path d="M161.199,106.211 C166.851,111.6 173.001,117.158 179,122 C208.161,145.535 215.035,153.168 249,169 C283.248,184.964 322.553,197.7286 357.999,207.3996 " fill="none" id="Detlef-to-goodbye" style="stroke:#A80036;stroke-width:1.0;"/><polygon fill="#A80036" points="363.2,208.804,355.5532,202.597,358.3727,207.5011,353.4686,210.3206,363.2,208.804" style="stroke:#A80036;stroke-width:1.0;"/><text fill="#000000" font-family="sans-serif" font-size="13" lengthAdjust="spacingAndGlyphs" textLength="30" x="250" y="165.0669">says</text><!--MD5=[c79ef75606a66b0cedcdf29c30c5884b]
link Shyam to goodbye--><path d="M80.2722,107.766 C85.5735,112.737 91.3073,117.729 97,122 C130.602,147.208 139.794,153.919 179,169 C230.824,188.935 290.602,203.116 341.827,212.797 " fill="none" id="Shyam-to-goodbye" style="stroke:#A80036;stroke-width:1.0;"/><polygon fill="#A80036" points="346.757,213.7199,338.6467,208.1322,341.8424,212.7999,337.1747,215.9956,346.757,213.7199" style="stroke:#A80036;stroke-width:1.0;"/><text fill="#000000" font-family="sans-serif" font-size="13" lengthAdjust="spacingAndGlyphs" textLength="30" x="180" y="165.0669">says</text><!--MD5=[fcb2f1ef1c8952633213d3478f35248a]
@startuml
folder "Glückwunschkarte" {
    usecase goodbye [
        Lieber Tom,
        wir wünschen dir viel Erfolg und
        alles Gute für die Zukunft!
    ]

    :Daniel: - -> goodbye: says
    :Rene: - -> goodbye: says
    :Frank: - -> goodbye: says
    :Janina: - -> goodbye: says
    :Hartwig: - -> goodbye: says
    :Claus-Peter: - -> goodbye: says
    :Felix: - -> goodbye: says
    :Stefan: - -> goodbye: says
    :Klaus: - -> goodbye: says
    :Detlef: - -> goodbye: says
    :Shyam: - -> goodbye: says
}
@enduml

PlantUML version 1.2020.22(Sun Dec 06 09:36:27 UTC 2020)
(GPL source distribution)
Java Runtime: Java(TM) SE Runtime Environment
JVM: Java HotSpot(TM) 64-Bit Server VM
Default Encoding: UTF-8
Language: en
Country: US
--></g></svg>