<?xml version="1.0" encoding="UTF-8" standalone="no"?><svg xmlns="http://www.w3.org/2000/svg" xmlns:xlink="http://www.w3.org/1999/xlink" contentScriptType="application/ecmascript" contentStyleType="text/css" height="297px" preserveAspectRatio="none" style="width:1516px;height:297px;" version="1.1" viewBox="0 0 1516 297" width="1516px" zoomAndPan="magnify"><defs><filter height="300%" id="f2c2b9s5nyiz4" width="300%" x="-1" y="-1"><feGaussianBlur result="blurOut" stdDeviation="2.0"/><feColorMatrix in="blurOut" result="blurOut2" type="matrix" values="0 0 0 0 0 0 0 0 0 0 0 0 0 0 0 0 0 0 .4 0"/><feOffset dx="4.0" dy="4.0" in="blurOut2" result="blurOut3"/><feBlend in="SourceGraphic" in2="blurOut3" mode="normal"/></filter></defs><g><!--MD5=[66092f187a140d509edf35c12b1eec33]
cluster Glückwunschkarte--><polygon fill="#FFFFFF" filter="url(#f2c2b9s5nyiz4)" points="16,6,171,6,178,28.2969,1499,28.2969,1499,290,16,290,16,6" style="stroke:#000000;stroke-width:1.5;"/><line style="stroke:#000000;stroke-width:1.5;" x1="16" x2="178" y1="28.2969" y2="28.2969"/><text fill="#000000" font-family="sans-serif" font-size="14" font-weight="bold" lengthAdjust="spacing" textLength="149" x="20" y="20.9951">Glückwunschkarte</text><ellipse cx="777.8772" cy="236.5709" fill="#FEFECE" filter="url(#f2c2b9s5nyiz4)" rx="169.8772" ry="37.5709" style="stroke:#A80036;stroke-width:1.5;"/><text fill="#000000" font-family="sans-serif" font-size="14" lengthAdjust="spacing" textLength="86" x="734.8772" y="223.1207">Lieber Tom,</text><text fill="#000000" font-family="sans-serif" font-size="14" lengthAdjust="spacing" textLength="224" x="665.8772" y="239.4176">wir wünschen dir viel Erfolg und</text><text fill="#000000" font-family="sans-serif" font-size="14" lengthAdjust="spacing" textLength="187" x="684.3772" y="255.7144">alles Gute für die Zukunft!</text><!--MD5=[c1b96b8b8683df5ba748b0cb12cbbe3c]
entity Daniel--><ellipse cx="1460" cy="50.5" fill="#FEFECE" filter="url(#f2c2b9s5nyiz4)" rx="8" ry="8" style="stroke:#A80036;stroke-width:1.5;"/><path d="M1460,58.5 L1460,85.5 M1447,66.5 L1473,66.5 M1460,85.5 L1447,100.5 M1460,85.5 L1473,100.5 " fill="none" filter="url(#f2c2b9s5nyiz4)" style="stroke:#A80036;stroke-width:1.5;"/><text fill="#000000" font-family="sans-serif" font-size="14" lengthAdjust="spacing" textLength="45" x="1437.5" y="118.9951">Daniel</text><!--MD5=[a9423008d16f12aa17a26e16f8cb43d5]
entity Rene--><ellipse cx="1384" cy="50.5" fill="#FEFECE" filter="url(#f2c2b9s5nyiz4)" rx="8" ry="8" style="stroke:#A80036;stroke-width:1.5;"/><path d="M1384,58.5 L1384,85.5 M1371,66.5 L1397,66.5 M1384,85.5 L1371,100.5 M1384,85.5 L1397,100.5 " fill="none" filter="url(#f2c2b9s5nyiz4)" style="stroke:#A80036;stroke-width:1.5;"/><text fill="#000000" font-family="sans-serif" font-size="14" lengthAdjust="spacing" textLength="37" x="1365.5" y="118.9951">Rene</text><!--MD5=[fa3845fac8be698dd000fa68d5a2e3be]
entity Frank--><ellipse cx="1310" cy="50.5" fill="#FEFECE" filter="url(#f2c2b9s5nyiz4)" rx="8" ry="8" style="stroke:#A80036;stroke-width:1.5;"/><path d="M1310,58.5 L1310,85.5 M1297,66.5 L1323,66.5 M1310,85.5 L1297,100.5 M1310,85.5 L1323,100.5 " fill="none" filter="url(#f2c2b9s5nyiz4)" style="stroke:#A80036;stroke-width:1.5;"/><text fill="#000000" font-family="sans-serif" font-size="14" lengthAdjust="spacing" textLength="40" x="1290" y="118.9951">Frank</text><!--MD5=[0630ea7ba86524916c58551553813136]
entity Janina--><ellipse cx="1234" cy="50.5" fill="#FEFECE" filter="url(#f2c2b9s5nyiz4)" rx="8" ry="8" style="stroke:#A80036;stroke-width:1.5;"/><path d="M1234,58.5 L1234,85.5 M1221,66.5 L1247,66.5 M1234,85.5 L1221,100.5 M1234,85.5 L1247,100.5 " fill="none" filter="url(#f2c2b9s5nyiz4)" style="stroke:#A80036;stroke-width:1.5;"/><text fill="#000000" font-family="sans-serif" font-size="14" lengthAdjust="spacing" textLength="42" x="1213" y="118.9951">Janina</text><!--MD5=[256e55fea0fa3198e7872be6d62206e7]
entity Hartwig--><ellipse cx="1150" cy="50.5" fill="#FEFECE" filter="url(#f2c2b9s5nyiz4)" rx="8" ry="8" style="stroke:#A80036;stroke-width:1.5;"/><path d="M1150,58.5 L1150,85.5 M1137,66.5 L1163,66.5 M1150,85.5 L1137,100.5 M1150,85.5 L1163,100.5 " fill="none" filter="url(#f2c2b9s5nyiz4)" style="stroke:#A80036;stroke-width:1.5;"/><text fill="#000000" font-family="sans-serif" font-size="14" lengthAdjust="spacing" textLength="55" x="1122.5" y="118.9951">Hartwig</text><!--MD5=[9b95b9c18cb1e472571f5f163adcbf08]
entity Claus-Peter--><ellipse cx="1046" cy="50.5" fill="#FEFECE" filter="url(#f2c2b9s5nyiz4)" rx="8" ry="8" style="stroke:#A80036;stroke-width:1.5;"/><path d="M1046,58.5 L1046,85.5 M1033,66.5 L1059,66.5 M1046,85.5 L1033,100.5 M1046,85.5 L1059,100.5 " fill="none" filter="url(#f2c2b9s5nyiz4)" style="stroke:#A80036;stroke-width:1.5;"/><text fill="#000000" font-family="sans-serif" font-size="14" lengthAdjust="spacing" textLength="83" x="1004.5" y="118.9951">Claus-Peter</text><!--MD5=[b1b6f11ea69a5e1a18d70aafc16bcf68]
entity Felix--><ellipse cx="953" cy="50.5" fill="#FEFECE" filter="url(#f2c2b9s5nyiz4)" rx="8" ry="8" style="stroke:#A80036;stroke-width:1.5;"/><path d="M953,58.5 L953,85.5 M940,66.5 L966,66.5 M953,85.5 L940,100.5 M953,85.5 L966,100.5 " fill="none" filter="url(#f2c2b9s5nyiz4)" style="stroke:#A80036;stroke-width:1.5;"/><text fill="#000000" font-family="sans-serif" font-size="14" lengthAdjust="spacing" textLength="33" x="936.5" y="118.9951">Felix</text><!--MD5=[97fe1d276186194fdff51126a6821804]
entity Christian--><ellipse cx="869" cy="50.5" fill="#FEFECE" filter="url(#f2c2b9s5nyiz4)" rx="8" ry="8" style="stroke:#A80036;stroke-width:1.5;"/><path d="M869,58.5 L869,85.5 M856,66.5 L882,66.5 M869,85.5 L856,100.5 M869,85.5 L882,100.5 " fill="none" filter="url(#f2c2b9s5nyiz4)" style="stroke:#A80036;stroke-width:1.5;"/><text fill="#000000" font-family="sans-serif" font-size="14" lengthAdjust="spacing" textLength="64" x="837" y="118.9951">Christian</text><!--MD5=[0d988fe91444ec70c41456c736a04fce]
entity Stefan--><ellipse cx="778" cy="50.5" fill="#FEFECE" filter="url(#f2c2b9s5nyiz4)" rx="8" ry="8" style="stroke:#A80036;stroke-width:1.5;"/><path d="M778,58.5 L778,85.5 M765,66.5 L791,66.5 M778,85.5 L765,100.5 M778,85.5 L791,100.5 " fill="none" filter="url(#f2c2b9s5nyiz4)" style="stroke:#A80036;stroke-width:1.5;"/><text fill="#000000" font-family="sans-serif" font-size="14" lengthAdjust="spacing" textLength="48" x="754" y="118.9951">Stefan</text><!--MD5=[dd3cab79017c4025ff97f2ffe66ce617]
entity Klaus--><ellipse cx="700" cy="50.5" fill="#FEFECE" filter="url(#f2c2b9s5nyiz4)" rx="8" ry="8" style="stroke:#A80036;stroke-width:1.5;"/><path d="M700,58.5 L700,85.5 M687,66.5 L713,66.5 M700,85.5 L687,100.5 M700,85.5 L713,100.5 " fill="none" filter="url(#f2c2b9s5nyiz4)" style="stroke:#A80036;stroke-width:1.5;"/><text fill="#000000" font-family="sans-serif" font-size="14" lengthAdjust="spacing" textLength="37" x="681.5" y="118.9951">Klaus</text><!--MD5=[52f72cad88ef2c18c4ef0e5aee04cdc6]
entity Detlef--><ellipse cx="623" cy="50.5" fill="#FEFECE" filter="url(#f2c2b9s5nyiz4)" rx="8" ry="8" style="stroke:#A80036;stroke-width:1.5;"/><path d="M623,58.5 L623,85.5 M610,66.5 L636,66.5 M623,85.5 L610,100.5 M623,85.5 L636,100.5 " fill="none" filter="url(#f2c2b9s5nyiz4)" style="stroke:#A80036;stroke-width:1.5;"/><text fill="#000000" font-family="sans-serif" font-size="14" lengthAdjust="spacing" textLength="46" x="600" y="118.9951">Detlef</text><!--MD5=[4256810c50bbff3d011dff55e05bc701]
entity Karsten--><ellipse cx="537" cy="50.5" fill="#FEFECE" filter="url(#f2c2b9s5nyiz4)" rx="8" ry="8" style="stroke:#A80036;stroke-width:1.5;"/><path d="M537,58.5 L537,85.5 M524,66.5 L550,66.5 M537,85.5 L524,100.5 M537,85.5 L550,100.5 " fill="none" filter="url(#f2c2b9s5nyiz4)" style="stroke:#A80036;stroke-width:1.5;"/><text fill="#000000" font-family="sans-serif" font-size="14" lengthAdjust="spacing" textLength="56" x="509" y="118.9951">Karsten</text><!--MD5=[adf99b581cb8d84a603ed1e57d0cd319]
entity Shyam--><ellipse cx="450" cy="50.5" fill="#FEFECE" filter="url(#f2c2b9s5nyiz4)" rx="8" ry="8" style="stroke:#A80036;stroke-width:1.5;"/><path d="M450,58.5 L450,85.5 M437,66.5 L463,66.5 M450,85.5 L437,100.5 M450,85.5 L463,100.5 " fill="none" filter="url(#f2c2b9s5nyiz4)" style="stroke:#A80036;stroke-width:1.5;"/><text fill="#000000" font-family="sans-serif" font-size="14" lengthAdjust="spacing" textLength="48" x="426" y="118.9951">Shyam</text><!--MD5=[f9dd6b39be9a99c92cca373d23c3a60a]
entity MicNet--><ellipse cx="366" cy="50.5" fill="#FEFECE" filter="url(#f2c2b9s5nyiz4)" rx="8" ry="8" style="stroke:#A80036;stroke-width:1.5;"/><path d="M366,58.5 L366,85.5 M353,66.5 L379,66.5 M366,85.5 L353,100.5 M366,85.5 L379,100.5 " fill="none" filter="url(#f2c2b9s5nyiz4)" style="stroke:#A80036;stroke-width:1.5;"/><text fill="#000000" font-family="sans-serif" font-size="14" lengthAdjust="spacing" textLength="50" x="341" y="118.9951">MicNet</text><!--MD5=[41f2db2ca7aecd6a21c8c9517294992e]
entity Gordon--><ellipse cx="279" cy="50.5" fill="#FEFECE" filter="url(#f2c2b9s5nyiz4)" rx="8" ry="8" style="stroke:#A80036;stroke-width:1.5;"/><path d="M279,58.5 L279,85.5 M266,66.5 L292,66.5 M279,85.5 L266,100.5 M279,85.5 L292,100.5 " fill="none" filter="url(#f2c2b9s5nyiz4)" style="stroke:#A80036;stroke-width:1.5;"/><text fill="#000000" font-family="sans-serif" font-size="14" lengthAdjust="spacing" textLength="53" x="252.5" y="118.9951">Gordon</text><!--MD5=[fcbda0a99a206a8c315729d3b009c889]
entity Arnold--><ellipse cx="194" cy="50.5" fill="#FEFECE" filter="url(#f2c2b9s5nyiz4)" rx="8" ry="8" style="stroke:#A80036;stroke-width:1.5;"/><path d="M194,58.5 L194,85.5 M181,66.5 L207,66.5 M194,85.5 L181,100.5 M194,85.5 L207,100.5 " fill="none" filter="url(#f2c2b9s5nyiz4)" style="stroke:#A80036;stroke-width:1.5;"/><text fill="#000000" font-family="sans-serif" font-size="14" lengthAdjust="spacing" textLength="47" x="170.5" y="118.9951">Arnold</text><!--MD5=[feb5d7b50972393c5935af67c12f6c23]
entity Jens--><ellipse cx="121" cy="50.5" fill="#FEFECE" filter="url(#f2c2b9s5nyiz4)" rx="8" ry="8" style="stroke:#A80036;stroke-width:1.5;"/><path d="M121,58.5 L121,85.5 M108,66.5 L134,66.5 M121,85.5 L108,100.5 M121,85.5 L134,100.5 " fill="none" filter="url(#f2c2b9s5nyiz4)" style="stroke:#A80036;stroke-width:1.5;"/><text fill="#000000" font-family="sans-serif" font-size="14" lengthAdjust="spacing" textLength="29" x="106.5" y="118.9951">Jens</text><!--MD5=[acf15012f68eca4cd8d497cab17f1cc1]
entity Mario--><ellipse cx="52" cy="50.5" fill="#FEFECE" filter="url(#f2c2b9s5nyiz4)" rx="8" ry="8" style="stroke:#A80036;stroke-width:1.5;"/><path d="M52,58.5 L52,85.5 M39,66.5 L65,66.5 M52,85.5 L39,100.5 M52,85.5 L65,100.5 " fill="none" filter="url(#f2c2b9s5nyiz4)" style="stroke:#A80036;stroke-width:1.5;"/><text fill="#000000" font-family="sans-serif" font-size="14" lengthAdjust="spacing" textLength="39" x="32.5" y="118.9951">Mario</text><!--MD5=[134f007453776ecca3a6acf8d78233db]
link Daniel to goodbye--><path d="M1437.3,118.218 C1423.62,136.584 1404.5,157.477 1382,169 C1309.1,206.3388 1102.4,222.8476 951.052,230.0581 " fill="none" id="Daniel-to-goodbye" style="stroke:#A80036;stroke-width:1.0;"/><polygon fill="#A80036" points="945.691,230.3107,954.8696,233.882,950.6854,230.075,954.4924,225.8909,945.691,230.3107" style="stroke:#A80036;stroke-width:1.0;"/><text fill="#000000" font-family="sans-serif" font-size="13" lengthAdjust="spacing" textLength="30" x="1406" y="165.0669">says</text><!--MD5=[db63f63d1dde73e9ed38631a79176a49]
link Rene to goodbye--><path d="M1365.29,121.121 C1354.76,138.641 1339.9,157.888 1321,169 C1259.87,204.946 1085.3,221.5834 950.425,229.2073 " fill="none" id="Rene-to-goodbye" style="stroke:#A80036;stroke-width:1.0;"/><polygon fill="#A80036" points="945.242,229.497,954.4509,232.9893,950.2342,229.2184,954.0052,225.0018,945.242,229.497" style="stroke:#A80036;stroke-width:1.0;"/><text fill="#000000" font-family="sans-serif" font-size="13" lengthAdjust="spacing" textLength="30" x="1343" y="165.0669">says</text><!--MD5=[644a0aa15c78204cc8702eb030db7665]
link Frank to goodbye--><path d="M1289.88,105.993 C1284.42,111.625 1278.27,117.349 1272,122 C1235.13,149.366 1223.61,154.638 1180,169 C1102.57,194.497 1013.4,210.5143 938.739,220.4197 " fill="none" id="Frank-to-goodbye" style="stroke:#A80036;stroke-width:1.0;"/><polygon fill="#A80036" points="933.389,221.1224,942.8334,223.9157,938.3464,220.471,941.7912,215.9839,933.389,221.1224" style="stroke:#A80036;stroke-width:1.0;"/><text fill="#000000" font-family="sans-serif" font-size="13" lengthAdjust="spacing" textLength="30" x="1225" y="165.0669">says</text><!--MD5=[644a0aa15c78204cc8702eb030db7665]
link Frank to goodbye--><path d="M1298.11,122.133 C1290.96,139.219 1280.04,157.81 1264,169 C1214.14,203.773 1068.77,220.4429 949.905,228.3872 " fill="none" id="Frank-to-goodbye-1" style="stroke:#A80036;stroke-width:1.0;"/><polygon fill="#A80036" points="944.622,228.7357,953.8664,232.133,949.6111,228.4057,953.3384,224.1504,944.622,228.7357" style="stroke:#A80036;stroke-width:1.0;"/><text fill="#000000" font-family="sans-serif" font-size="13" lengthAdjust="spacing" textLength="30" x="1282" y="165.0669">says</text><!--MD5=[a7c4c016ed3720d98aa871a82b235603]
link Janina to goodbye--><path d="M1212.65,107.068 C1207.24,112.421 1201.2,117.749 1195,122 C1151.83,151.606 1136.83,152.97 1087,169 C1031.97,186.703 969.898,201.097 915.904,211.9086 " fill="none" id="Janina-to-goodbye" style="stroke:#A80036;stroke-width:1.0;"/><polygon fill="#A80036" points="910.705,212.9436,920.3125,215.1104,915.6089,211.9679,918.7514,207.2642,910.705,212.9436" style="stroke:#A80036;stroke-width:1.0;"/><text fill="#000000" font-family="sans-serif" font-size="13" lengthAdjust="spacing" textLength="30" x="1141" y="165.0669">says</text><!--MD5=[73e5cbdd5fe8c098f32d0e922db6c3b3]
link Hartwig to goodbye--><path d="M1122.06,109.496 C1116.64,114.002 1110.83,118.38 1105,122 C1041.69,161.317 962.975,189.178 898.641,207.4542 " fill="none" id="Hartwig-to-goodbye" style="stroke:#A80036;stroke-width:1.0;"/><polygon fill="#A80036" points="893.643,208.8632,903.3904,210.2731,898.4557,207.5075,901.2213,202.5728,893.643,208.8632" style="stroke:#A80036;stroke-width:1.0;"/><text fill="#000000" font-family="sans-serif" font-size="13" lengthAdjust="spacing" textLength="30" x="1048" y="165.0669">says</text><!--MD5=[c798c2a4aec0a6ca21e0c86c1213d9a9]
link Claus-Peter to goodbye--><path d="M1004.49,115.97 C982.267,133.029 953.977,153.405 927,169 C906.936,180.599 884.479,191.576 863.207,201.144 " fill="none" id="Claus-Peter-to-goodbye" style="stroke:#A80036;stroke-width:1.0;"/><polygon fill="#A80036" points="858.402,203.291,868.2508,203.2716,862.967,201.2513,864.9873,195.9675,858.402,203.291" style="stroke:#A80036;stroke-width:1.0;"/><text fill="#000000" font-family="sans-serif" font-size="13" lengthAdjust="spacing" textLength="30" x="952" y="165.0669">says</text><!--MD5=[940c2c4b3e9a175da85c5c43da9a1942]
link Felix to goodbye--><path d="M936.255,102.107 C930.581,108.557 924.128,115.69 918,122 C896.754,143.881 891.417,149.459 868,169 C856.609,178.506 844.005,188.258 831.925,197.264 " fill="none" id="Felix-to-goodbye" style="stroke:#A80036;stroke-width:1.0;"/><polygon fill="#A80036" points="827.852,200.288,837.4631,198.1368,831.8672,197.3084,832.6957,191.7125,827.852,200.288" style="stroke:#A80036;stroke-width:1.0;"/><text fill="#000000" font-family="sans-serif" font-size="13" lengthAdjust="spacing" textLength="30" x="888" y="165.0669">says</text><!--MD5=[ffd5db64786246a16157eb76a3b36502]
link Christian to goodbye--><path d="M845.715,122.16 C837.043,136.887 827.098,153.722 818,169 C813.056,177.302 807.743,186.171 802.655,194.639 " fill="none" id="Christian-to-goodbye" style="stroke:#A80036;stroke-width:1.0;"/><polygon fill="#A80036" points="799.856,199.296,807.9206,193.6425,802.4316,195.0104,801.0637,189.5215,799.856,199.296" style="stroke:#A80036;stroke-width:1.0;"/><text fill="#000000" font-family="sans-serif" font-size="13" lengthAdjust="spacing" textLength="30" x="829" y="165.0669">says</text><!--MD5=[9026734ccdc3a0c933977b0de7bf7968]
link Stefan to goodbye--><path d="M778,122.3 C778,144.186 778,171.324 778,193.542 " fill="none" id="Stefan-to-goodbye" style="stroke:#A80036;stroke-width:1.0;"/><polygon fill="#A80036" points="778,198.785,782,189.785,778,193.785,774,189.785,778,198.785" style="stroke:#A80036;stroke-width:1.0;"/><text fill="#000000" font-family="sans-serif" font-size="13" lengthAdjust="spacing" textLength="30" x="779" y="165.0669">says</text><!--MD5=[6a15de97a5a27597fa8b9bf00aa319b9]
link Klaus to goodbye--><path d="M716.172,122.183 C722.564,137.064 730.233,153.997 738,169 C742.338,177.379 747.296,186.15 752.21,194.472 " fill="none" id="Klaus-to-goodbye" style="stroke:#A80036;stroke-width:1.0;"/><polygon fill="#A80036" points="754.931,199.043,753.766,189.2633,752.3741,194.7462,746.8911,193.3544,754.931,199.043" style="stroke:#A80036;stroke-width:1.0;"/><text fill="#000000" font-family="sans-serif" font-size="13" lengthAdjust="spacing" textLength="30" x="739" y="165.0669">says</text><!--MD5=[c583d9217ae71fc31b76872054257442]
link Detlef to goodbye--><path d="M646.213,116.653 C658.313,133.304 673.921,153.112 690,169 C699.948,178.83 711.381,188.463 722.644,197.212 " fill="none" id="Detlef-to-goodbye" style="stroke:#A80036;stroke-width:1.0;"/><polygon fill="#A80036" points="726.782,200.394,722.0841,191.7378,722.8178,197.3469,717.2087,198.0806,726.782,200.394" style="stroke:#A80036;stroke-width:1.0;"/><text fill="#000000" font-family="sans-serif" font-size="13" lengthAdjust="spacing" textLength="30" x="691" y="165.0669">says</text><!--MD5=[c41ea72e9c9a4318808fa73558378dcf]
link Karsten to goodbye--><path d="M565.07,107.171 C570.674,112.088 576.521,117.211 582,122 C605.956,142.939 609.335,151.641 636,169 C653.982,180.706 674.352,191.508 693.935,200.853 " fill="none" id="Karsten-to-goodbye" style="stroke:#A80036;stroke-width:1.0;"/><polygon fill="#A80036" points="698.895,203.197,692.4656,195.7363,694.374,201.0615,689.0488,202.9699,698.895,203.197" style="stroke:#A80036;stroke-width:1.0;"/><text fill="#000000" font-family="sans-serif" font-size="13" lengthAdjust="spacing" textLength="30" x="637" y="165.0669">says</text><!--MD5=[c79ef75606a66b0cedcdf29c30c5884b]
link Shyam to goodbye--><path d="M474.238,107.811 C479.542,112.779 485.285,117.759 491,122 C542.582,160.28 608.79,187.598 664.615,205.826 " fill="none" id="Shyam-to-goodbye" style="stroke:#A80036;stroke-width:1.0;"/><polygon fill="#A80036" points="669.641,207.4514,662.3083,200.8763,664.8835,205.913,659.8469,208.4883,669.641,207.4514" style="stroke:#A80036;stroke-width:1.0;"/><text fill="#000000" font-family="sans-serif" font-size="13" lengthAdjust="spacing" textLength="30" x="572" y="165.0669">says</text><!--MD5=[f5c59e058414087efedfa6cb6b48a73f]
link MicNet to goodbye--><path d="M391.21,108.386 C396.522,113.203 402.262,117.978 408,122 C445.924,148.581 457.524,153.043 501,169 C547.252,185.976 599.453,199.81 645.969,210.3771 " fill="none" id="MicNet-to-goodbye" style="stroke:#A80036;stroke-width:1.0;"/><polygon fill="#A80036" points="651.031,211.5192,643.1332,205.635,646.1538,210.4178,641.371,213.4385,651.031,211.5192" style="stroke:#A80036;stroke-width:1.0;"/><text fill="#000000" font-family="sans-serif" font-size="13" lengthAdjust="spacing" textLength="30" x="502" y="165.0669">says</text><!--MD5=[1c62b5d5bd4eccbb39e7e380bd5055d6]
link Gordon to goodbye--><path d="M305.973,108.804 C311.396,113.48 317.213,118.097 323,122 C362.384,148.565 373.894,154.091 419,169 C485.428,190.956 561.31,206.3412 626.145,216.74 " fill="none" id="Gordon-to-goodbye" style="stroke:#A80036;stroke-width:1.0;"/><polygon fill="#A80036" points="631.19,217.5426,622.9304,212.178,626.2521,216.7569,621.6732,220.0786,631.19,217.5426" style="stroke:#A80036;stroke-width:1.0;"/><text fill="#000000" font-family="sans-serif" font-size="13" lengthAdjust="spacing" textLength="30" x="420" y="165.0669">says</text><!--MD5=[2cc34c692f3808a9497c4fbf3e7b4444]
link Arnold to goodbye--><path d="M217.581,107.699 C223.02,112.784 228.984,117.84 235,122 C275.061,149.703 287.411,154.794 334,169 C424.551,196.61 529.12,212.9899 614.024,222.5812 " fill="none" id="Arnold-to-goodbye" style="stroke:#A80036;stroke-width:1.0;"/><polygon fill="#A80036" points="619.074,223.1463,610.5743,218.1708,614.105,222.5906,609.6852,226.1212,619.074,223.1463" style="stroke:#A80036;stroke-width:1.0;"/><text fill="#000000" font-family="sans-serif" font-size="13" lengthAdjust="spacing" textLength="30" x="335" y="165.0669">says</text><!--MD5=[ca45d86a6a0102107b848520db018317]
link Jens to goodbye--><path d="M135.792,104.085 C140.771,110.366 146.681,116.901 153,122 C189.042,151.082 201.704,155.484 246,169 C363.105,204.731 500.321,221.3001 606.065,228.9655 " fill="none" id="Jens-to-goodbye" style="stroke:#A80036;stroke-width:1.0;"/><polygon fill="#A80036" points="611.076,229.3238,602.3847,224.6912,606.0888,228.9667,601.8133,232.6707,611.076,229.3238" style="stroke:#A80036;stroke-width:1.0;"/><text fill="#000000" font-family="sans-serif" font-size="13" lengthAdjust="spacing" textLength="30" x="247" y="165.0669">says</text><!--MD5=[4c78a10d2764931ac6c026d76a95cbfd]
link Mario to goodbye--><path d="M71.5937,105.528 C91.0618,126.511 123,156.128 158,169 C237.97,198.41 454.019,216.7953 608.558,226.5942 " fill="none" id="Mario-to-goodbye" style="stroke:#A80036;stroke-width:1.0;"/><polygon fill="#A80036" points="613.571,226.9104,604.8415,222.3501,608.581,226.5947,604.3364,230.3341,613.571,226.9104" style="stroke:#A80036;stroke-width:1.0;"/><text fill="#000000" font-family="sans-serif" font-size="13" lengthAdjust="spacing" textLength="30" x="159" y="165.0669">says</text><!--MD5=[788fcfa47ebc3440f4b54b788e310801]
@startuml
folder "Glückwunschkarte" {
    usecase goodbye [
        Lieber Tom,
        wir wünschen dir viel Erfolg und
        alles Gute für die Zukunft!
    ]

    :Daniel: - -> goodbye: says
    :Rene: - -> goodbye: says
    :Frank: - -> goodbye: says
    :Janina: - -> goodbye: says
    :Hartwig: - -> goodbye: says
    :Claus-Peter: - -> goodbye: says
    :Felix: - -> goodbye: says
    :Christian: - -> goodbye: says
    :Stefan: - -> goodbye: says
    :Klaus: - -> goodbye: says
    :Detlef: - -> goodbye: says
    :Karsten: - -> goodbye: says
    :Shyam: - -> goodbye: says
    :MicNet: - -> goodbye: says
    :Gordon: - -> goodbye: says
    :Frank: - -> goodbye: says
    :Arnold: - -> goodbye: says 
    :Jens: - -> goodbye: says
    :Mario: - -> goodbye: says
   
    
}
@enduml

PlantUML version 1.2020.27beta7(Unknown compile time)
(GPL source distribution)
Java Runtime: Java(TM) SE Runtime Environment
JVM: Java HotSpot(TM) 64-Bit Server VM
Default Encoding: UTF-8
Language: en
Country: US
--></g></svg>