<?xml version="1.0" encoding="UTF-8" standalone="no"?><svg xmlns="http://www.w3.org/2000/svg" xmlns:xlink="http://www.w3.org/1999/xlink" contentScriptType="application/ecmascript" contentStyleType="text/css" height="287px" preserveAspectRatio="none" style="width:420px;height:287px;" version="1.1" viewBox="0 0 420 287" width="420px" zoomAndPan="magnify"><defs><filter height="300%" id="ftitj5manwb5a" width="300%" x="-1" y="-1"><feGaussianBlur result="blurOut" stdDeviation="2.0"/><feColorMatrix in="blurOut" result="blurOut2" type="matrix" values="0 0 0 0 0 0 0 0 0 0 0 0 0 0 0 0 0 0 .4 0"/><feOffset dx="4.0" dy="4.0" in="blurOut2" result="blurOut3"/><feBlend in="SourceGraphic" in2="blurOut3" mode="normal"/></filter></defs><g><!--MD5=[66092f187a140d509edf35c12b1eec33]
cluster Glückwunschkarte--><polygon fill="#FFFFFF" filter="url(#ftitj5manwb5a)" points="16,6,171,6,178,28.2969,403,28.2969,403,280,16,280,16,6" style="stroke:#000000;stroke-width:1.5;"/><line style="stroke:#000000;stroke-width:1.5;" x1="16" x2="178" y1="28.2969" y2="28.2969"/><text fill="#000000" font-family="sans-serif" font-size="14" font-weight="bold" lengthAdjust="spacingAndGlyphs" textLength="149" x="20" y="20.9951">Glückwunschkarte</text><ellipse cx="210.9484" cy="231.3449" fill="#FEFECE" filter="url(#ftitj5manwb5a)" rx="137.4484" ry="32.3449" style="stroke:#A80036;stroke-width:1.5;"/><text fill="#000000" font-family="sans-serif" font-size="14" lengthAdjust="spacingAndGlyphs" textLength="86" x="167.9484" y="216.3382">Lieber Tom,</text><text fill="#000000" font-family="sans-serif" font-size="14" lengthAdjust="spacingAndGlyphs" textLength="224" x="98.9484" y="232.635">wir wünschen dir viel Erfolg und</text><text fill="#000000" font-family="sans-serif" font-size="14" lengthAdjust="spacingAndGlyphs" textLength="187" x="117.4484" y="248.9319">alles Gute für die Zukunft!</text><!--MD5=[c1b96b8b8683df5ba748b0cb12cbbe3c]
entity Daniel--><ellipse cx="361" cy="50.5" fill="#FEFECE" filter="url(#ftitj5manwb5a)" rx="8" ry="8" style="stroke:#A80036;stroke-width:1.5;"/><path d="M361,58.5 L361,85.5 M348,66.5 L374,66.5 M361,85.5 L348,100.5 M361,85.5 L374,100.5 " fill="none" filter="url(#ftitj5manwb5a)" style="stroke:#A80036;stroke-width:1.5;"/><text fill="#000000" font-family="sans-serif" font-size="14" lengthAdjust="spacingAndGlyphs" textLength="45" x="338.5" y="118.9951">Daniel</text><!--MD5=[a9423008d16f12aa17a26e16f8cb43d5]
entity Rene--><ellipse cx="285" cy="50.5" fill="#FEFECE" filter="url(#ftitj5manwb5a)" rx="8" ry="8" style="stroke:#A80036;stroke-width:1.5;"/><path d="M285,58.5 L285,85.5 M272,66.5 L298,66.5 M285,85.5 L272,100.5 M285,85.5 L298,100.5 " fill="none" filter="url(#ftitj5manwb5a)" style="stroke:#A80036;stroke-width:1.5;"/><text fill="#000000" font-family="sans-serif" font-size="14" lengthAdjust="spacingAndGlyphs" textLength="37" x="266.5" y="118.9951">Rene</text><!--MD5=[fa3845fac8be698dd000fa68d5a2e3be]
entity Frank--><ellipse cx="211" cy="50.5" fill="#FEFECE" filter="url(#ftitj5manwb5a)" rx="8" ry="8" style="stroke:#A80036;stroke-width:1.5;"/><path d="M211,58.5 L211,85.5 M198,66.5 L224,66.5 M211,85.5 L198,100.5 M211,85.5 L224,100.5 " fill="none" filter="url(#ftitj5manwb5a)" style="stroke:#A80036;stroke-width:1.5;"/><text fill="#000000" font-family="sans-serif" font-size="14" lengthAdjust="spacingAndGlyphs" textLength="40" x="191" y="118.9951">Frank</text><!--MD5=[0630ea7ba86524916c58551553813136]
entity Janina--><ellipse cx="135" cy="50.5" fill="#FEFECE" filter="url(#ftitj5manwb5a)" rx="8" ry="8" style="stroke:#A80036;stroke-width:1.5;"/><path d="M135,58.5 L135,85.5 M122,66.5 L148,66.5 M135,85.5 L122,100.5 M135,85.5 L148,100.5 " fill="none" filter="url(#ftitj5manwb5a)" style="stroke:#A80036;stroke-width:1.5;"/><text fill="#000000" font-family="sans-serif" font-size="14" lengthAdjust="spacingAndGlyphs" textLength="42" x="114" y="118.9951">Janina</text><!--MD5=[1baef995baf605750a18e6de17020cf1]
entity NN--><ellipse cx="64" cy="50.5" fill="#FEFECE" filter="url(#ftitj5manwb5a)" rx="8" ry="8" style="stroke:#A80036;stroke-width:1.5;"/><path d="M64,58.5 L64,85.5 M51,66.5 L77,66.5 M64,85.5 L51,100.5 M64,85.5 L77,100.5 " fill="none" filter="url(#ftitj5manwb5a)" style="stroke:#A80036;stroke-width:1.5;"/><text fill="#000000" font-family="sans-serif" font-size="14" lengthAdjust="spacingAndGlyphs" textLength="20" x="54" y="118.9951">NN</text><!--MD5=[134f007453776ecca3a6acf8d78233db]
link Daniel to goodbye--><path d="M338.309,115.399 C325.89,132.301 309.665,152.709 293,169 C282.8,178.971 270.948,188.727 259.479,197.4256 " fill="none" id="Daniel-to-goodbye" style="stroke:#A80036;stroke-width:1.0;"/><polygon fill="#A80036" points="255.275,200.5809,264.8742,198.3776,259.274,197.5795,260.072,191.9792,255.275,200.5809" style="stroke:#A80036;stroke-width:1.0;"/><text fill="#000000" font-family="sans-serif" font-size="13" lengthAdjust="spacingAndGlyphs" textLength="30" x="309" y="165.0669">says</text><!--MD5=[db63f63d1dde73e9ed38631a79176a49]
link Rene to goodbye--><path d="M266.634,122.319 C259.701,137.062 251.64,153.868 244,169 C239.807,177.305 235.16,186.161 230.71,194.489 " fill="none" id="Rene-to-goodbye" style="stroke:#A80036;stroke-width:1.0;"/><polygon fill="#A80036" points="228.261,199.0554,236.0389,193.0136,230.6236,194.6488,228.9883,189.2334,228.261,199.0554" style="stroke:#A80036;stroke-width:1.0;"/><text fill="#000000" font-family="sans-serif" font-size="13" lengthAdjust="spacingAndGlyphs" textLength="30" x="254" y="165.0669">says</text><!--MD5=[644a0aa15c78204cc8702eb030db7665]
link Frank to goodbye--><path d="M208.644,122.112 C208.027,136.833 207.627,153.678 208,169 C208.196,177.053 208.537,185.695 208.92,193.88 " fill="none" id="Frank-to-goodbye" style="stroke:#A80036;stroke-width:1.0;"/><polygon fill="#A80036" points="209.163,198.908,212.7238,189.7254,208.9216,193.9138,204.7331,190.1116,209.163,198.908" style="stroke:#A80036;stroke-width:1.0;"/><text fill="#000000" font-family="sans-serif" font-size="13" lengthAdjust="spacingAndGlyphs" textLength="30" x="209" y="165.0669">says</text><!--MD5=[a7c4c016ed3720d98aa871a82b235603]
link Janina to goodbye--><path d="M147.808,122.15 C153.259,137.185 160.173,154.23 168,169 C172.581,177.644 178.175,186.509 183.792,194.721 " fill="none" id="Janina-to-goodbye" style="stroke:#A80036;stroke-width:1.0;"/><polygon fill="#A80036" points="186.909,199.2108,185.0626,189.5366,184.0577,195.1035,178.4908,194.0986,186.909,199.2108" style="stroke:#A80036;stroke-width:1.0;"/><text fill="#000000" font-family="sans-serif" font-size="13" lengthAdjust="spacingAndGlyphs" textLength="30" x="169" y="165.0669">says</text><!--MD5=[1cd3121078869b9a9fef74afa9523acb]
link NN to goodbye--><path d="M78.5271,110.205 C88.8356,128.237 103.851,151.56 121,169 C131.491,179.668 144.086,189.613 156.485,198.2636 " fill="none" id="NN-to-goodbye" style="stroke:#A80036;stroke-width:1.0;"/><polygon fill="#A80036" points="160.679,201.1468,155.529,192.7517,156.5589,198.314,150.9966,199.344,160.679,201.1468" style="stroke:#A80036;stroke-width:1.0;"/><text fill="#000000" font-family="sans-serif" font-size="13" lengthAdjust="spacingAndGlyphs" textLength="30" x="122" y="165.0669">says</text><!--MD5=[a8ae36fd03605f024ac536dc2b428cf2]
@startuml
folder "Glückwunschkarte" {
    usecase goodbye [
        Lieber Tom,
        wir wünschen dir viel Erfolg und
        alles Gute für die Zukunft!
    ]

    :Daniel: - -> goodbye: says
    :Rene: - -> goodbye: says
    :Frank: - -> goodbye: says
    :Janina: - -> goodbye: says
    :NN: - -> goodbye: says
}
@enduml

PlantUML version 1.2020.22(Sun Dec 06 09:36:27 UTC 2020)
(GPL source distribution)
Java Runtime: Java(TM) SE Runtime Environment
JVM: Java HotSpot(TM) 64-Bit Server VM
Default Encoding: UTF-8
Language: en
Country: US
--></g></svg>