<?xml version="1.0" encoding="UTF-8" standalone="no"?><svg xmlns="http://www.w3.org/2000/svg" xmlns:xlink="http://www.w3.org/1999/xlink" contentScriptType="application/ecmascript" contentStyleType="text/css" height="297px" preserveAspectRatio="none" style="width:1417px;height:297px;" version="1.1" viewBox="0 0 1417 297" width="1417px" zoomAndPan="magnify"><defs><filter height="300%" id="f16wju9ibcbqrh" width="300%" x="-1" y="-1"><feGaussianBlur result="blurOut" stdDeviation="2.0"/><feColorMatrix in="blurOut" result="blurOut2" type="matrix" values="0 0 0 0 0 0 0 0 0 0 0 0 0 0 0 0 0 0 .4 0"/><feOffset dx="4.0" dy="4.0" in="blurOut2" result="blurOut3"/><feBlend in="SourceGraphic" in2="blurOut3" mode="normal"/></filter></defs><g><!--MD5=[66092f187a140d509edf35c12b1eec33]
cluster Glückwunschkarte--><polygon fill="#FFFFFF" filter="url(#f16wju9ibcbqrh)" points="16,6,171,6,178,28.2969,1400,28.2969,1400,290,16,290,16,6" style="stroke:#000000;stroke-width:1.5;"/><line style="stroke:#000000;stroke-width:1.5;" x1="16" x2="178" y1="28.2969" y2="28.2969"/><text fill="#000000" font-family="sans-serif" font-size="14" font-weight="bold" lengthAdjust="spacingAndGlyphs" textLength="149" x="20" y="20.9951">Glückwunschkarte</text><ellipse cx="736.8772" cy="236.5709" fill="#FEFECE" filter="url(#f16wju9ibcbqrh)" rx="169.8772" ry="37.5709" style="stroke:#A80036;stroke-width:1.5;"/><text fill="#000000" font-family="sans-serif" font-size="14" lengthAdjust="spacingAndGlyphs" textLength="86" x="693.8772" y="223.1207">Lieber Tom,</text><text fill="#000000" font-family="sans-serif" font-size="14" lengthAdjust="spacingAndGlyphs" textLength="224" x="624.8772" y="239.4176">wir wünschen dir viel Erfolg und</text><text fill="#000000" font-family="sans-serif" font-size="14" lengthAdjust="spacingAndGlyphs" textLength="187" x="643.3772" y="255.7144">alles Gute für die Zukunft!</text><!--MD5=[c1b96b8b8683df5ba748b0cb12cbbe3c]
entity Daniel--><ellipse cx="1361" cy="50.5" fill="#FEFECE" filter="url(#f16wju9ibcbqrh)" rx="8" ry="8" style="stroke:#A80036;stroke-width:1.5;"/><path d="M1361,58.5 L1361,85.5 M1348,66.5 L1374,66.5 M1361,85.5 L1348,100.5 M1361,85.5 L1374,100.5 " fill="none" filter="url(#f16wju9ibcbqrh)" style="stroke:#A80036;stroke-width:1.5;"/><text fill="#000000" font-family="sans-serif" font-size="14" lengthAdjust="spacingAndGlyphs" textLength="45" x="1338.5" y="118.9951">Daniel</text><!--MD5=[a9423008d16f12aa17a26e16f8cb43d5]
entity Rene--><ellipse cx="1285" cy="50.5" fill="#FEFECE" filter="url(#f16wju9ibcbqrh)" rx="8" ry="8" style="stroke:#A80036;stroke-width:1.5;"/><path d="M1285,58.5 L1285,85.5 M1272,66.5 L1298,66.5 M1285,85.5 L1272,100.5 M1285,85.5 L1298,100.5 " fill="none" filter="url(#f16wju9ibcbqrh)" style="stroke:#A80036;stroke-width:1.5;"/><text fill="#000000" font-family="sans-serif" font-size="14" lengthAdjust="spacingAndGlyphs" textLength="37" x="1266.5" y="118.9951">Rene</text><!--MD5=[fa3845fac8be698dd000fa68d5a2e3be]
entity Frank--><ellipse cx="1211" cy="50.5" fill="#FEFECE" filter="url(#f16wju9ibcbqrh)" rx="8" ry="8" style="stroke:#A80036;stroke-width:1.5;"/><path d="M1211,58.5 L1211,85.5 M1198,66.5 L1224,66.5 M1211,85.5 L1198,100.5 M1211,85.5 L1224,100.5 " fill="none" filter="url(#f16wju9ibcbqrh)" style="stroke:#A80036;stroke-width:1.5;"/><text fill="#000000" font-family="sans-serif" font-size="14" lengthAdjust="spacingAndGlyphs" textLength="40" x="1191" y="118.9951">Frank</text><!--MD5=[0630ea7ba86524916c58551553813136]
entity Janina--><ellipse cx="1135" cy="50.5" fill="#FEFECE" filter="url(#f16wju9ibcbqrh)" rx="8" ry="8" style="stroke:#A80036;stroke-width:1.5;"/><path d="M1135,58.5 L1135,85.5 M1122,66.5 L1148,66.5 M1135,85.5 L1122,100.5 M1135,85.5 L1148,100.5 " fill="none" filter="url(#f16wju9ibcbqrh)" style="stroke:#A80036;stroke-width:1.5;"/><text fill="#000000" font-family="sans-serif" font-size="14" lengthAdjust="spacingAndGlyphs" textLength="42" x="1114" y="118.9951">Janina</text><!--MD5=[256e55fea0fa3198e7872be6d62206e7]
entity Hartwig--><ellipse cx="1051" cy="50.5" fill="#FEFECE" filter="url(#f16wju9ibcbqrh)" rx="8" ry="8" style="stroke:#A80036;stroke-width:1.5;"/><path d="M1051,58.5 L1051,85.5 M1038,66.5 L1064,66.5 M1051,85.5 L1038,100.5 M1051,85.5 L1064,100.5 " fill="none" filter="url(#f16wju9ibcbqrh)" style="stroke:#A80036;stroke-width:1.5;"/><text fill="#000000" font-family="sans-serif" font-size="14" lengthAdjust="spacingAndGlyphs" textLength="55" x="1023.5" y="118.9951">Hartwig</text><!--MD5=[9b95b9c18cb1e472571f5f163adcbf08]
entity Claus-Peter--><ellipse cx="947" cy="50.5" fill="#FEFECE" filter="url(#f16wju9ibcbqrh)" rx="8" ry="8" style="stroke:#A80036;stroke-width:1.5;"/><path d="M947,58.5 L947,85.5 M934,66.5 L960,66.5 M947,85.5 L934,100.5 M947,85.5 L960,100.5 " fill="none" filter="url(#f16wju9ibcbqrh)" style="stroke:#A80036;stroke-width:1.5;"/><text fill="#000000" font-family="sans-serif" font-size="14" lengthAdjust="spacingAndGlyphs" textLength="83" x="905.5" y="118.9951">Claus-Peter</text><!--MD5=[b1b6f11ea69a5e1a18d70aafc16bcf68]
entity Felix--><ellipse cx="854" cy="50.5" fill="#FEFECE" filter="url(#f16wju9ibcbqrh)" rx="8" ry="8" style="stroke:#A80036;stroke-width:1.5;"/><path d="M854,58.5 L854,85.5 M841,66.5 L867,66.5 M854,85.5 L841,100.5 M854,85.5 L867,100.5 " fill="none" filter="url(#f16wju9ibcbqrh)" style="stroke:#A80036;stroke-width:1.5;"/><text fill="#000000" font-family="sans-serif" font-size="14" lengthAdjust="spacingAndGlyphs" textLength="33" x="837.5" y="118.9951">Felix</text><!--MD5=[0d988fe91444ec70c41456c736a04fce]
entity Stefan--><ellipse cx="778" cy="50.5" fill="#FEFECE" filter="url(#f16wju9ibcbqrh)" rx="8" ry="8" style="stroke:#A80036;stroke-width:1.5;"/><path d="M778,58.5 L778,85.5 M765,66.5 L791,66.5 M778,85.5 L765,100.5 M778,85.5 L791,100.5 " fill="none" filter="url(#f16wju9ibcbqrh)" style="stroke:#A80036;stroke-width:1.5;"/><text fill="#000000" font-family="sans-serif" font-size="14" lengthAdjust="spacingAndGlyphs" textLength="48" x="754" y="118.9951">Stefan</text><!--MD5=[dd3cab79017c4025ff97f2ffe66ce617]
entity Klaus--><ellipse cx="700" cy="50.5" fill="#FEFECE" filter="url(#f16wju9ibcbqrh)" rx="8" ry="8" style="stroke:#A80036;stroke-width:1.5;"/><path d="M700,58.5 L700,85.5 M687,66.5 L713,66.5 M700,85.5 L687,100.5 M700,85.5 L713,100.5 " fill="none" filter="url(#f16wju9ibcbqrh)" style="stroke:#A80036;stroke-width:1.5;"/><text fill="#000000" font-family="sans-serif" font-size="14" lengthAdjust="spacingAndGlyphs" textLength="37" x="681.5" y="118.9951">Klaus</text><!--MD5=[52f72cad88ef2c18c4ef0e5aee04cdc6]
entity Detlef--><ellipse cx="623" cy="50.5" fill="#FEFECE" filter="url(#f16wju9ibcbqrh)" rx="8" ry="8" style="stroke:#A80036;stroke-width:1.5;"/><path d="M623,58.5 L623,85.5 M610,66.5 L636,66.5 M623,85.5 L610,100.5 M623,85.5 L636,100.5 " fill="none" filter="url(#f16wju9ibcbqrh)" style="stroke:#A80036;stroke-width:1.5;"/><text fill="#000000" font-family="sans-serif" font-size="14" lengthAdjust="spacingAndGlyphs" textLength="46" x="600" y="118.9951">Detlef</text><!--MD5=[4256810c50bbff3d011dff55e05bc701]
entity Karsten--><ellipse cx="537" cy="50.5" fill="#FEFECE" filter="url(#f16wju9ibcbqrh)" rx="8" ry="8" style="stroke:#A80036;stroke-width:1.5;"/><path d="M537,58.5 L537,85.5 M524,66.5 L550,66.5 M537,85.5 L524,100.5 M537,85.5 L550,100.5 " fill="none" filter="url(#f16wju9ibcbqrh)" style="stroke:#A80036;stroke-width:1.5;"/><text fill="#000000" font-family="sans-serif" font-size="14" lengthAdjust="spacingAndGlyphs" textLength="56" x="509" y="118.9951">Karsten</text><!--MD5=[adf99b581cb8d84a603ed1e57d0cd319]
entity Shyam--><ellipse cx="450" cy="50.5" fill="#FEFECE" filter="url(#f16wju9ibcbqrh)" rx="8" ry="8" style="stroke:#A80036;stroke-width:1.5;"/><path d="M450,58.5 L450,85.5 M437,66.5 L463,66.5 M450,85.5 L437,100.5 M450,85.5 L463,100.5 " fill="none" filter="url(#f16wju9ibcbqrh)" style="stroke:#A80036;stroke-width:1.5;"/><text fill="#000000" font-family="sans-serif" font-size="14" lengthAdjust="spacingAndGlyphs" textLength="48" x="426" y="118.9951">Shyam</text><!--MD5=[f9dd6b39be9a99c92cca373d23c3a60a]
entity MicNet--><ellipse cx="366" cy="50.5" fill="#FEFECE" filter="url(#f16wju9ibcbqrh)" rx="8" ry="8" style="stroke:#A80036;stroke-width:1.5;"/><path d="M366,58.5 L366,85.5 M353,66.5 L379,66.5 M366,85.5 L353,100.5 M366,85.5 L379,100.5 " fill="none" filter="url(#f16wju9ibcbqrh)" style="stroke:#A80036;stroke-width:1.5;"/><text fill="#000000" font-family="sans-serif" font-size="14" lengthAdjust="spacingAndGlyphs" textLength="50" x="341" y="118.9951">MicNet</text><!--MD5=[41f2db2ca7aecd6a21c8c9517294992e]
entity Gordon--><ellipse cx="279" cy="50.5" fill="#FEFECE" filter="url(#f16wju9ibcbqrh)" rx="8" ry="8" style="stroke:#A80036;stroke-width:1.5;"/><path d="M279,58.5 L279,85.5 M266,66.5 L292,66.5 M279,85.5 L266,100.5 M279,85.5 L292,100.5 " fill="none" filter="url(#f16wju9ibcbqrh)" style="stroke:#A80036;stroke-width:1.5;"/><text fill="#000000" font-family="sans-serif" font-size="14" lengthAdjust="spacingAndGlyphs" textLength="53" x="252.5" y="118.9951">Gordon</text><!--MD5=[fcbda0a99a206a8c315729d3b009c889]
entity Arnold--><ellipse cx="194" cy="50.5" fill="#FEFECE" filter="url(#f16wju9ibcbqrh)" rx="8" ry="8" style="stroke:#A80036;stroke-width:1.5;"/><path d="M194,58.5 L194,85.5 M181,66.5 L207,66.5 M194,85.5 L181,100.5 M194,85.5 L207,100.5 " fill="none" filter="url(#f16wju9ibcbqrh)" style="stroke:#A80036;stroke-width:1.5;"/><text fill="#000000" font-family="sans-serif" font-size="14" lengthAdjust="spacingAndGlyphs" textLength="47" x="170.5" y="118.9951">Arnold</text><!--MD5=[feb5d7b50972393c5935af67c12f6c23]
entity Jens--><ellipse cx="121" cy="50.5" fill="#FEFECE" filter="url(#f16wju9ibcbqrh)" rx="8" ry="8" style="stroke:#A80036;stroke-width:1.5;"/><path d="M121,58.5 L121,85.5 M108,66.5 L134,66.5 M121,85.5 L108,100.5 M121,85.5 L134,100.5 " fill="none" filter="url(#f16wju9ibcbqrh)" style="stroke:#A80036;stroke-width:1.5;"/><text fill="#000000" font-family="sans-serif" font-size="14" lengthAdjust="spacingAndGlyphs" textLength="29" x="106.5" y="118.9951">Jens</text><!--MD5=[acf15012f68eca4cd8d497cab17f1cc1]
entity Mario--><ellipse cx="52" cy="50.5" fill="#FEFECE" filter="url(#f16wju9ibcbqrh)" rx="8" ry="8" style="stroke:#A80036;stroke-width:1.5;"/><path d="M52,58.5 L52,85.5 M39,66.5 L65,66.5 M52,85.5 L39,100.5 M52,85.5 L65,100.5 " fill="none" filter="url(#f16wju9ibcbqrh)" style="stroke:#A80036;stroke-width:1.5;"/><text fill="#000000" font-family="sans-serif" font-size="14" lengthAdjust="spacingAndGlyphs" textLength="39" x="32.5" y="118.9951">Mario</text><!--MD5=[134f007453776ecca3a6acf8d78233db]
link Daniel to goodbye--><path d="M1338.31,118.555 C1324.84,136.783 1306.09,157.439 1284,169 C1220.46,202.261 1043.69,219.3725 908.131,227.8423 " fill="none" id="Daniel-to-goodbye" style="stroke:#A80036;stroke-width:1.0;"/><polygon fill="#A80036" points="902.923,228.1647,912.1537,231.599,907.9134,227.8547,911.6577,223.6144,902.923,228.1647" style="stroke:#A80036;stroke-width:1.0;"/><text fill="#000000" font-family="sans-serif" font-size="13" lengthAdjust="spacingAndGlyphs" textLength="30" x="1308" y="165.0669">says</text><!--MD5=[db63f63d1dde73e9ed38631a79176a49]
link Rene to goodbye--><path d="M1266.3,122.327 C1256.2,139.454 1242.06,158.024 1224,169 C1171.77,200.745 1025.51,217.7848 906.807,226.6371 " fill="none" id="Rene-to-goodbye" style="stroke:#A80036;stroke-width:1.0;"/><polygon fill="#A80036" points="901.532,227.0265,910.8024,230.3522,906.5184,226.6579,910.2127,222.374,901.532,227.0265" style="stroke:#A80036;stroke-width:1.0;"/><text fill="#000000" font-family="sans-serif" font-size="13" lengthAdjust="spacingAndGlyphs" textLength="30" x="1245" y="165.0669">says</text><!--MD5=[644a0aa15c78204cc8702eb030db7665]
link Frank to goodbye--><path d="M1190.84,105.934 C1185.37,111.568 1179.23,117.307 1173,122 C1137.26,148.904 1126.21,154.183 1084,169 C1021.65,190.886 950.336,206.1282 888.636,216.4423 " fill="none" id="Frank-to-goodbye" style="stroke:#A80036;stroke-width:1.0;"/><polygon fill="#A80036" points="883.456,217.3006,892.9887,219.776,888.3888,216.4835,891.6813,211.8835,883.456,217.3006" style="stroke:#A80036;stroke-width:1.0;"/><text fill="#000000" font-family="sans-serif" font-size="13" lengthAdjust="spacingAndGlyphs" textLength="30" x="1128" y="165.0669">says</text><!--MD5=[644a0aa15c78204cc8702eb030db7665]
link Frank to goodbye--><path d="M1199.76,122.418 C1192.98,139.348 1182.56,157.733 1167,169 C1125.49,199.067 1007.15,215.9439 905.103,225.1659 " fill="none" id="Frank-to-goodbye-1" style="stroke:#A80036;stroke-width:1.0;"/><polygon fill="#A80036" points="899.949,225.6264,909.2688,228.8109,904.9292,225.1821,908.558,220.8425,899.949,225.6264" style="stroke:#A80036;stroke-width:1.0;"/><text fill="#000000" font-family="sans-serif" font-size="13" lengthAdjust="spacingAndGlyphs" textLength="30" x="1185" y="165.0669">says</text><!--MD5=[a7c4c016ed3720d98aa871a82b235603]
link Janina to goodbye--><path d="M1113.6,107.005 C1108.2,112.361 1102.17,117.705 1096,122 C1030.77,167.405 946.527,195.283 876.04,212.0399 " fill="none" id="Janina-to-goodbye" style="stroke:#A80036;stroke-width:1.0;"/><polygon fill="#A80036" points="870.989,213.2273,880.6656,215.0614,875.8563,212.083,878.8347,207.2737,870.989,213.2273" style="stroke:#A80036;stroke-width:1.0;"/><text fill="#000000" font-family="sans-serif" font-size="13" lengthAdjust="spacingAndGlyphs" textLength="30" x="1045" y="165.0669">says</text><!--MD5=[73e5cbdd5fe8c098f32d0e922db6c3b3]
link Hartwig to goodbye--><path d="M1023.34,108.757 C1017.8,113.437 1011.87,118.068 1006,122 C954.073,156.762 889.777,184.364 837.066,203.642 " fill="none" id="Hartwig-to-goodbye" style="stroke:#A80036;stroke-width:1.0;"/><polygon fill="#A80036" points="832.326,205.364,842.1509,206.0501,837.0254,203.6565,839.419,198.531,832.326,205.364" style="stroke:#A80036;stroke-width:1.0;"/><text fill="#000000" font-family="sans-serif" font-size="13" lengthAdjust="spacingAndGlyphs" textLength="30" x="953" y="165.0669">says</text><!--MD5=[c798c2a4aec0a6ca21e0c86c1213d9a9]
link Claus-Peter to goodbye--><path d="M906.527,122.346 C889.965,137.735 870.205,154.976 851,169 C836.538,179.56 820.282,189.871 804.675,199.099 " fill="none" id="Claus-Peter-to-goodbye" style="stroke:#A80036;stroke-width:1.0;"/><polygon fill="#A80036" points="800.292,201.673,810.0784,200.5655,804.6037,199.1414,806.0278,193.6667,800.292,201.673" style="stroke:#A80036;stroke-width:1.0;"/><text fill="#000000" font-family="sans-serif" font-size="13" lengthAdjust="spacingAndGlyphs" textLength="30" x="872" y="165.0669">says</text><!--MD5=[940c2c4b3e9a175da85c5c43da9a1942]
link Felix to goodbye--><path d="M837.431,111.437 C827.116,128.681 813.155,150.701 799,169 C792.112,177.906 784.248,187.011 776.489,195.514 " fill="none" id="Felix-to-goodbye" style="stroke:#A80036;stroke-width:1.0;"/><polygon fill="#A80036" points="772.692,199.636,781.7309,195.7246,776.0788,195.9578,775.8457,190.3057,772.692,199.636" style="stroke:#A80036;stroke-width:1.0;"/><text fill="#000000" font-family="sans-serif" font-size="13" lengthAdjust="spacingAndGlyphs" textLength="30" x="812" y="165.0669">says</text><!--MD5=[9026734ccdc3a0c933977b0de7bf7968]
link Stefan to goodbye--><path d="M767.335,122.3 C761.423,144.36 754.081,171.757 748.101,194.073 " fill="none" id="Stefan-to-goodbye" style="stroke:#A80036;stroke-width:1.0;"/><polygon fill="#A80036" points="746.769,199.044,752.9622,191.3861,748.0632,194.2144,745.2348,189.3154,746.769,199.044" style="stroke:#A80036;stroke-width:1.0;"/><text fill="#000000" font-family="sans-serif" font-size="13" lengthAdjust="spacingAndGlyphs" textLength="30" x="760" y="165.0669">says</text><!--MD5=[6a15de97a5a27597fa8b9bf00aa319b9]
link Klaus to goodbye--><path d="M695.101,122.239 C694.416,137.127 695.03,154.049 699,169 C701.333,177.783 705.128,186.616 709.439,194.847 " fill="none" id="Klaus-to-goodbye" style="stroke:#A80036;stroke-width:1.0;"/><polygon fill="#A80036" points="711.881,199.353,711.1084,189.5345,709.4982,194.9573,704.0753,193.347,711.881,199.353" style="stroke:#A80036;stroke-width:1.0;"/><text fill="#000000" font-family="sans-serif" font-size="13" lengthAdjust="spacingAndGlyphs" textLength="30" x="700" y="165.0669">says</text><!--MD5=[c583d9217ae71fc31b76872054257442]
link Detlef to goodbye--><path d="M633.313,122.113 C638.539,137.641 645.952,155.042 656,169 C663.32,179.168 672.562,188.678 682.163,197.147 " fill="none" id="Detlef-to-goodbye" style="stroke:#A80036;stroke-width:1.0;"/><polygon fill="#A80036" points="686.002,200.464,681.8091,191.5522,682.2194,197.1942,676.5774,197.6045,686.002,200.464" style="stroke:#A80036;stroke-width:1.0;"/><text fill="#000000" font-family="sans-serif" font-size="13" lengthAdjust="spacingAndGlyphs" textLength="30" x="657" y="165.0669">says</text><!--MD5=[c41ea72e9c9a4318808fa73558378dcf]
link Karsten to goodbye--><path d="M563.561,122.185 C575.531,138.082 590.648,155.732 607,169 C621.575,180.826 638.594,191.374 655.423,200.394 " fill="none" id="Karsten-to-goodbye" style="stroke:#A80036;stroke-width:1.0;"/><polygon fill="#A80036" points="660.162,202.897,654.0736,195.1555,655.7413,200.5609,650.3358,202.2286,660.162,202.897" style="stroke:#A80036;stroke-width:1.0;"/><text fill="#000000" font-family="sans-serif" font-size="13" lengthAdjust="spacingAndGlyphs" textLength="30" x="608" y="165.0669">says</text><!--MD5=[c79ef75606a66b0cedcdf29c30c5884b]
link Shyam to goodbye--><path d="M474.363,106.696 C479.754,111.844 485.5,117.179 491,122 C516.211,144.099 520.695,152.717 550,169 C574.952,182.865 603.338,194.72 630.322,204.414 " fill="none" id="Shyam-to-goodbye" style="stroke:#A80036;stroke-width:1.0;"/><polygon fill="#A80036" points="635.343,206.1994,628.2024,199.4162,630.6317,204.5249,625.5231,206.9543,635.343,206.1994" style="stroke:#A80036;stroke-width:1.0;"/><text fill="#000000" font-family="sans-serif" font-size="13" lengthAdjust="spacingAndGlyphs" textLength="30" x="551" y="165.0669">says</text><!--MD5=[f5c59e058414087efedfa6cb6b48a73f]
link MicNet to goodbye--><path d="M391.019,107.612 C396.439,112.594 402.269,117.63 408,122 C439.884,146.308 448.118,153.275 485,169 C524.097,185.669 568.43,199.059 608.893,209.3311 " fill="none" id="MicNet-to-goodbye" style="stroke:#A80036;stroke-width:1.0;"/><polygon fill="#A80036" points="613.807,210.5684,606.0568,204.491,608.9585,209.347,604.1025,212.2487,613.807,210.5684" style="stroke:#A80036;stroke-width:1.0;"/><text fill="#000000" font-family="sans-serif" font-size="13" lengthAdjust="spacingAndGlyphs" textLength="30" x="486" y="165.0669">says</text><!--MD5=[1c62b5d5bd4eccbb39e7e380bd5055d6]
link Gordon to goodbye--><path d="M305.594,108.248 C311.144,113.076 317.105,117.891 323,122 C359.698,147.578 369.886,153.92 412,169 C468.844,189.354 533.634,204.19 590.33,214.6134 " fill="none" id="Gordon-to-goodbye" style="stroke:#A80036;stroke-width:1.0;"/><polygon fill="#A80036" points="595.44,215.5452,587.3022,209.9975,590.5209,214.6494,585.869,217.8681,595.44,215.5452" style="stroke:#A80036;stroke-width:1.0;"/><text fill="#000000" font-family="sans-serif" font-size="13" lengthAdjust="spacingAndGlyphs" textLength="30" x="413" y="165.0669">says</text><!--MD5=[2cc34c692f3808a9497c4fbf3e7b4444]
link Arnold to goodbye--><path d="M217.606,107.662 C223.044,112.75 229.001,117.816 235,122 C274.293,149.403 286.334,154.524 332,169 C411.092,194.072 502.025,210.0937 577.664,220.1116 " fill="none" id="Arnold-to-goodbye" style="stroke:#A80036;stroke-width:1.0;"/><polygon fill="#A80036" points="582.624,220.7628,574.2218,215.6243,577.6666,220.1114,573.1796,223.5561,582.624,220.7628" style="stroke:#A80036;stroke-width:1.0;"/><text fill="#000000" font-family="sans-serif" font-size="13" lengthAdjust="spacingAndGlyphs" textLength="30" x="333" y="165.0669">says</text><!--MD5=[ca45d86a6a0102107b848520db018317]
link Jens to goodbye--><path d="M135.779,104.101 C140.757,110.383 146.67,116.915 153,122 C189.414,151.253 202.367,155.229 247,169 C350.862,201.045 471.844,217.6591 567.606,226.2671 " fill="none" id="Jens-to-goodbye" style="stroke:#A80036;stroke-width:1.0;"/><polygon fill="#A80036" points="572.722,226.7215,564.1117,221.9401,567.7417,226.2786,563.4031,229.9086,572.722,226.7215" style="stroke:#A80036;stroke-width:1.0;"/><text fill="#000000" font-family="sans-serif" font-size="13" lengthAdjust="spacingAndGlyphs" textLength="30" x="248" y="165.0669">says</text><!--MD5=[4c78a10d2764931ac6c026d76a95cbfd]
link Mario to goodbye--><path d="M71.8406,105.488 C91.5373,126.44 123.808,156.037 159,169 C231.948,195.87 426.134,214.4689 569.393,225.0292 " fill="none" id="Mario-to-goodbye" style="stroke:#A80036;stroke-width:1.0;"/><polygon fill="#A80036" points="574.467,225.4015,565.785,220.7515,569.4805,225.0344,565.1976,228.7299,574.467,225.4015" style="stroke:#A80036;stroke-width:1.0;"/><text fill="#000000" font-family="sans-serif" font-size="13" lengthAdjust="spacingAndGlyphs" textLength="30" x="160" y="165.0669">says</text><!--MD5=[64bddaaeed56a3af172fb87e7ae1295c]
@startuml
folder "Glückwunschkarte" {
    usecase goodbye [
        Lieber Tom,
        wir wünschen dir viel Erfolg und
        alles Gute für die Zukunft!
    ]

    :Daniel: - -> goodbye: says
    :Rene: - -> goodbye: says
    :Frank: - -> goodbye: says
    :Janina: - -> goodbye: says
    :Hartwig: - -> goodbye: says
    :Claus-Peter: - -> goodbye: says
    :Felix: - -> goodbye: says
    :Stefan: - -> goodbye: says
    :Klaus: - -> goodbye: says
    :Detlef: - -> goodbye: says
    :Karsten: - -> goodbye: says
    :Shyam: - -> goodbye: says
    :MicNet: - -> goodbye: says
    :Gordon: - -> goodbye: says
    :Frank: - -> goodbye: says
    :Arnold: - -> goodbye: says 
    :Jens: - -> goodbye: says
    :Mario: - -> goodbye: says
   
    
}
@enduml

PlantUML version 1.2020.27beta4(Unknown compile time)
(GPL source distribution)
Java Runtime: Java(TM) SE Runtime Environment
JVM: Java HotSpot(TM) 64-Bit Server VM
Default Encoding: UTF-8
Language: en
Country: US
--></g></svg>